<svg xmlns="http://www.w3.org/2000/svg" xmlns:xlink="http://www.w3.org/1999/xlink" id="Layer_1" x="0" y="0" version="1.1" viewBox="0 0 73.585 17.704" xml:space="preserve" style="enable-background:new 0 0 73.5853195 17.7040977"><style type="text/css">.st13{fill:#001959}.st949{fill:#1be0e6}</style><g><g><rect width="1.908" height="5.314" x="1.778" y="1.911" class="st949"/><path d="M0,0v15.9645243c0,0.8173952,0.6626185,1.4800425,1.4800128,1.4800425h9.9136391 c0.8078232,0,1.4626818-0.6548882,1.4626818-1.4626818V0H0z M3.6859627,15.5421314H1.7783262V1.9105682h1.9076365V15.5421314z M11.0780077,15.5421314H5.4095926v-1.9076071h5.6684151V15.5421314z" class="st13"/></g><g><path d="M27.3556881,4.3611417c-0.3543549,0-0.6618443,0.1312256-0.9137783,0.3895617 c-0.2498779,0.2560501-0.3765316,0.562396-0.3765316,0.9094353c0,0.3470397,0.1266537,0.6529284,0.3763027,0.9089785 c0.2514782,0.2583361,0.5617104,0.3895617,0.9222374,0.3895617c0.3593845,0,0.6689301-0.1275678,0.9199524-0.3790455 c0.2512474-0.2510204,0.3785877-0.5605669,0.3785877-0.9194946c0-0.3593845-0.1273403-0.668931-0.3785877-0.9199514 C28.0328484,4.4887094,27.7205601,4.3611417,27.3556881,4.3611417z" class="st13"/><path d="M62.8789902,11.4185238c0,1.1810312-0.0509796,1.9729586-0.1514587,2.3538332 c-0.0975037,0.3699007-0.2781105,0.7247133-0.5366745,1.0557489c-0.2567368,0.3292074-0.5691414,0.5898304-0.928299,0.7745523 c-0.7165947,0.3685293-1.5326424,0.3282928-2.0381126,0.1101933c-0.2485046-0.1074505-0.447403-0.2661095-0.6080055-0.4851236 c-0.1662025-0.2263308-0.2945709-0.510272-0.3815613-0.8431368c-0.089386-0.3415527-0.1347656-1.0127697-0.1347656-1.9939909 V7.7981577h-1.842762v4.9275942c0,1.2861948,0.1380844,2.2194061,0.4229393,2.8540449 c0.2859993,0.6373816,0.7217407,1.1453676,1.2947693,1.5093241c0.5721092,0.3639565,1.2178383,0.5482216,1.9193459,0.5482216 c1.1222763,0,2.1237297-0.4201965,2.9845848-1.2500744v1.0150566h1.8595657v-9.604167h-1.8595657V11.4185238z" class="st13"/><path d="M49.6181068,7.5631404c-0.6760178,0-1.325058,0.1801496-1.9292908,0.535419 c-0.4846687,0.2848558-0.9080658,0.6771612-1.2633362,1.1686859c-0.2437019-0.4782648-0.588913-0.8655405-1.0292282-1.1545115 c-0.5562248-0.3648715-1.1833191-0.5495934-1.8634529-0.5495934c-1.0424881,0-1.9480362,0.3817887-2.6997261,1.1362224V7.7981577 h-1.8426476v9.604167h1.8426476v-4.1233215c0-1.1138182,0.1010475-1.9148893,0.299942-2.3808098 c0.1938667-0.4540319,0.4963264-0.8262186,0.899147-1.1065025c0.3991661-0.277997,0.8250771-0.419282,1.2658501-0.419282 c0.4416847,0,0.7942123,0.1097355,1.0786095,0.3351517c0.2839432,0.2254152,0.462719,0.5066137,0.5459366,0.8595972 c0.0905304,0.3827028,0.1362572,1.0301447,0.1362572,1.9240341v4.9111328h1.8261833v-3.8380089 c0-1.1001015,0.086647-1.9368362,0.2576523-2.4873447c0.165062-0.5308466,0.449688-0.9386978,0.8703423-1.2468729 c0.4151649-0.3036022,0.8621101-0.4576893,1.3284874-0.4576893c0.4634056,0,0.8374214,0.1101933,1.1122169,0.3269215 c0.2798271,0.2208433,0.4560928,0.4842091,0.53862,0.8051863c0.0896187,0.3479538,0.1351128,0.9149218,0.1351128,1.6849012 v5.2129068h1.876255v-5.2129068c0-1.7800055-0.3239517-2.9692669-0.9903679-3.6354551 C51.3562775,7.8964624,50.5501747,7.5631404,49.6181068,7.5631404z" class="st13"/><path d="M71.2351379,11.7559614c-0.6504059-0.3415527-1.1047821-0.6286945-1.3505478-0.8541098 c-0.2139816-0.1956959-0.3180008-0.4133387-0.3180008-0.6652737c0-0.2528496,0.0907593-0.4599752,0.2773056-0.6332664 c0.5131302-0.4764366,1.3882751-0.3145761,2.363205,0.5948591l0.1684952,0.1572876l1.2097244-1.2555599l-0.1665497-0.162775 c-0.9350433-0.9117212-1.8445892-1.3739829-2.70327-1.3739829c-0.8582306,0-1.5615692,0.2587934-2.0904694,0.769979 c-0.531189,0.5130148-0.8006134,1.1421671-0.8006134,1.8696241c0,0.7183113,0.1903229,1.3104277,0.5658264,1.7594299 c0.3600693,0.4311705,0.892746,0.8257618,1.5828247,1.1737156c0.6433258,0.3246355,1.0992966,0.6085768,1.3553467,0.8435936 c0.2253036,0.2071266,0.3349228,0.4576902,0.3349228,0.7663221c0,0.3090887-0.1235657,0.5738268-0.3775558,0.8088436 c-0.2594833,0.2405043-0.5638809,0.3570986-0.9306946,0.3570986c-0.5514297,0-1.1119919-0.3278351-1.666275-0.9743624 l-0.1738586-0.2030106l-1.1811447,1.3177443l0.1215057,0.1545429c0.7807236,0.9935665,1.773262,1.4974365,2.9500656,1.4974365 c0.8539963,0,1.5835114-0.2935429,2.1679688-0.8723984c0.5856018-0.5793133,0.8825684-1.300827,0.8825684-2.1444206 c0-0.6693878-0.2022095-1.2450438-0.6011429-1.711421C72.4734421,12.5305138,71.9285355,12.1199188,71.2351379,11.7559614z" class="st13"/><polygon points="19.291 4.361 17.365 4.361 17.365 17.402 23.918 17.402 23.918 15.543 19.291 15.543" class="st13"/><rect width="1.86" height="9.604" x="26.434" y="7.798" class="st13"/><path d="M34.4962883,4.3611417h-1.8595657v3.437016H31.0611v1.6748428h1.5756226v6.3541584 c0,0.6305246,0.1522598,1.1060457,0.4526596,1.4128485c0.3013153,0.3081741,0.758091,0.4640903,1.3575249,0.4640903 c0.2926292,0,0.7173958-0.0461807,1.2619591-0.1371689l0.1956978-0.0324631V15.911747h-1.0388336 c-0.2350159,0-0.3289795-0.0237761-0.3436089-0.0150881c-0.008461-0.0242338-0.0258331-0.0937328-0.0258331-0.2537642V9.4730005 h1.8106384V7.7981577h-1.8106384V4.3611417z" class="st13"/></g></g></svg>