<svg xmlns="http://www.w3.org/2000/svg" xmlns:xlink="http://www.w3.org/1999/xlink" id="Layer_1" x="0" y="0" version="1.1" viewBox="0 0 88.7 88.7" xml:space="preserve" style="enable-background:new 0 0 88.7 88.7"><style type="text/css">.st1{fill:#fff}</style><path d="M44.3,88.7C19.9,88.7,0,68.8,0,44.3C0,19.9,19.9,0,44.3,0c24.4,0,44.3,19.9,44.3,44.3	C88.7,68.8,68.8,88.7,44.3,88.7z M44.3,5.3c-21.5,0-39,17.5-39,39s17.5,39,39,39s39-17.5,39-39S65.8,5.3,44.3,5.3z" class="st1"/><g><path d="M38.5,51.2c6.8-5.1,13.4-10,19.9-14.9c0.5-0.4,1-0.8,1.5-1.1c1.8-1.3,3.6-1.2,4.7,0.3c1,1.5,0.7,3-1.1,4.4 c-6.1,4.6-12.2,9.2-18.3,13.7c-1.5,1.1-3,2.3-4.6,3.4c-1.9,1.4-3.2,1.4-4.9-0.3c-3.7-3.7-7.4-7.4-11.1-11.1 c-1.6-1.6-1.7-3.3-0.4-4.6c1.3-1.2,3-1,4.6,0.6C32.1,44.7,35.2,47.8,38.5,51.2z" class="st1"/></g></svg>