<svg xmlns="http://www.w3.org/2000/svg" xmlns:xlink="http://www.w3.org/1999/xlink" id="Layer_1" x="0" y="0" version="1.1" viewBox="0 0 107.2 150.5" xml:space="preserve" style="enable-background:new 0 0 107.2 150.5"><style type="text/css">.st0{fill:#0063ff}.st125{fill:#fff}.st139{fill:#7d7e8d}.st148{fill:#002883}.st162{opacity:.2;fill:#03002d}.st169{fill:#004ed6}.st187{fill:#001959}.st290{fill:#0f054c}.st290,.st299{opacity:.3}.st300{opacity:.6;fill:#14bbc4}.st2236{fill:#4d4e5a}.st2237{fill:#edb693}.st2238{fill:#c5875d}.st2239{fill:#282728}.st2240{fill:#173d7a}.st2241{fill:#396caa}.st2242{fill:#5793ce}.st2243{fill:#274f89}.st2244{fill:#d4ecff}</style><g><g><g class="st299"><g><polygon points="53.5 135.9 18.9 116 18.9 130.2 53.5 150.1 88 130.2 88 116" class="st169"/><polygon points="53.5 150.1 18.9 130.2 18.9 116 53.5 135.9" class="st169"/><polygon points="88 130.2 53.5 150.1 53.5 135.9 88 116" class="st169"/><polygon points="53.5 135.9 18.9 116 53.5 96.1 88 116" class="st169"/><polygon points="53.5 135.9 18.9 116 18.9 117.7 53.5 137.7 88 117.7 88 116" class="st125"/></g></g><polygon points="53.5 120.8 18.9 100.8 53.5 80.9 88 100.8" class="st162"/><path d="M53.5,129.4l-0.1-0.1L4.1,100.8l0.3-0.2l49.1-28.3l0.1,0.1l49.3,28.5l-0.3,0.2L53.5,129.4z M4.9,100.8 l48.6,28l48.6-28l-48.6-28L4.9,100.8z" class="st290"/><g><g><polygon points="53.5 95.9 18.9 76 18.9 90.2 53.5 110.1 88 90.2 88 76" class="st169"/><polygon points="53.5 110.1 18.9 90.2 18.9 76 53.5 95.9" class="st290"/><polygon points="88 90.2 53.5 110.1 53.5 95.9 88 76" class="st169"/><polygon points="53.5 95.9 18.9 76 53.5 56.1 88 76" class="st169"/><polygon points="53.5 95.9 18.9 76 18.9 77.7 53.5 97.7 88 77.7 88 76" class="st125"/></g></g><g><polygon points="53.5 93 24 76 53.5 59 82.9 76" class="st300"/><g><polygon points="53.5 74.2 18.9 54.2 18.9 68.4 53.5 88.3 88 68.4 88 54.2" class="st169"/><polygon points="53.5 88.3 18.9 68.4 18.9 54.2 53.5 74.2" class="st290"/><polygon points="88 68.4 53.5 88.3 53.5 74.2 88 54.2" class="st169"/><polygon points="53.5 74.2 18.9 54.2 53.5 34.3 88 54.2" class="st169"/><polygon points="53.5 74.2 18.9 54.2 18.9 56 53.5 75.9 88 56 88 54.2" class="st125"/></g></g><g><polygon points="53.5 71.2 24 54.2 53.5 37.2 82.9 54.2" class="st300"/><g><polygon points="53.5 52.4 18.9 32.5 18.9 46.6 53.5 66.6 88 46.6 88 32.5" class="st169"/><polygon points="53.5 66.6 18.9 46.6 18.9 32.5 53.5 52.4" class="st290"/><polygon points="88 46.6 53.5 66.6 53.5 52.4 88 32.5" class="st169"/><linearGradient id="SVGID_1_" x1="18.928" x2="87.999" y1="32.469" y2="32.469" gradientUnits="userSpaceOnUse"><stop offset=".111" style="stop-color:#004ed6"/><stop offset="1" style="stop-color:#1be0e6"/></linearGradient><polygon style="fill:url(#SVGID_1_)" points="53.5 52.4 18.9 32.5 53.5 12.5 88 32.5"/><polygon points="53.5 52.4 18.9 32.5 18.9 34.2 53.5 54.1 88 34.2 88 32.5" class="st125"/></g><ellipse cx="83.9" cy="43.3" class="st125" rx=".5" ry=".8"/><ellipse cx="81.9" cy="44.3" class="st125" rx=".5" ry=".8"/><ellipse cx="79.9" cy="45.3" class="st125" rx=".5" ry=".8"/></g></g></g><g><g><g><path d="M41.3,62.9c0,0-1.5-0.7-2.3,0.4c-0.9,1.1-2.2,3.7-2.2,5.4c0,1.7,1.4,1.6,2.2,1.2s3.3-4,3.4-4.7 c0.1-0.7-0.2-1.6-0.4-1.8C41.8,63.2,41.3,62.9,41.3,62.9z" class="st187"/><path d="M41.6,62.5l0.1,1.5c0,0.3-0.1,0.6-0.4,0.8c-0.3,0.1-0.6,0.3-1.1,0.2c-1.1-0.2-1.2-0.5-1.3-2 C38.8,61.5,41.6,62.5,41.6,62.5z" class="st2236"/><g><path d="M36,60c0,0-1.5-0.7-2.3,0.4c-0.9,1.1-2.2,3.7-2.2,5.4c0,1.7,1.4,1.6,2.2,1.2c0.8-0.4,3.3-4,3.4-4.7 c0.1-0.7-0.2-1.6-0.4-1.8S36,60,36,60z" class="st187"/><path d="M36.3,59.6l0.1,1.5c0,0.3-0.1,0.6-0.4,0.8c-0.3,0.1-0.6,0.3-1.1,0.2c-1.1-0.2-1.2-0.5-1.3-2 S36.3,59.6,36.3,59.6z" class="st2236"/><path d="M49.2,32c-0.4-7-7.6,1-7.6,1l-4.9,4.8l-4.4,4.8c-0.9,0.9-1.3,2.2-1.1,3.5l1.8,13.5 c0.1,0.7,0.7,1.2,1.3,1.2c0.2,0,0.4,0,0.7-0.1c1.6-0.2,1.5-1.8,1.5-1.8l-0.3-12.7l9.2-5.6C45.5,40.8,49.7,39,49.2,32z" class="st139"/></g><path d="M54.5,34.7c-0.4-7-7.6,1-7.6,1l-4.9,4.8l-4.4,4.8c-0.9,0.9-1.3,2.2-1.1,3.5l1.8,13.5 c0.1,0.7,0.7,1.2,1.3,1.2c0.2,0,0.4,0,0.7-0.1c1.6-0.2,1.5-1.8,1.5-1.8l-0.3-12.7l9.2-5.6C50.8,43.5,55,41.7,54.5,34.7z" class="st139"/><path d="M50.3,12.3c5.4,2.2,5.3,5.4,5.3,5.4s-1.1,11.7-0.7,19.6c0.2,3.3-17.4,3.5-14.8-5.2 c3.1-10.3,1.9-18.6,3.4-19.9C45,10.9,48.9,11.7,50.3,12.3z" class="st0"/><ellipse cx="49.4" cy="14.4" class="st2237" rx="2.1" ry="2.8" transform="matrix(0.2494 -0.9684 0.9684 0.2494 23.0813 58.6324)"/><path d="M49.8,16.8c-0.3,0-0.7,0-1-0.1c-0.8-0.2-1.4-0.6-1.9-1.2c-0.5-0.6-0.6-1.2-0.5-1.8 c0.2-0.6,0.6-1.1,1.3-1.4c0.7-0.3,1.4-0.3,2.2-0.1c0.8,0.2,1.4,0.6,1.9,1.2c0.5,0.6,0.6,1.2,0.5,1.8c-0.2,0.6-0.6,1.1-1.3,1.4 C50.6,16.7,50.2,16.8,49.8,16.8z M49,12.6c-0.4,0-0.7,0.1-1,0.2c-0.5,0.2-0.9,0.6-1,1c-0.1,0.4,0,0.9,0.4,1.4 c0.4,0.5,1,0.8,1.6,1c0.7,0.2,1.3,0.1,1.9-0.1c0.5-0.2,0.9-0.6,1-1c0.1-0.4,0-0.9-0.4-1.4c-0.4-0.5-1-0.8-1.6-1 C49.5,12.6,49.2,12.6,49,12.6z" class="st125"/><path d="M48.2,12c0,0,0,0.2,0,1.9c0,0.5,1.9,1,2.3,0.6c0.5-0.5,0.3-1,0.4-2.8C51,9.9,48.2,12,48.2,12z" class="st2237"/><path d="M50.9,11.7c0,0-0.5,1.7-2.8,2.4l0-1.5L50.9,11.7z" class="st2238"/><path d="M52.3,7.4c0.6,2.2-0.8,4.5-3,5.1c-2.2,0.6-4.5-0.8-5.1-3c-0.6-2.2,0.8-4.5,3-5.1S51.7,5.2,52.3,7.4z" class="st2237"/><path d="M49.2,8.6c0,0-2.3,1-3.9,1c-1.6,0-1.2-1.3-1.2-1.3l4.7-0.7L49.2,8.6z" class="st2238"/><path d="M44.9,8.8c0,0,2-0.8,3.7-0.5C49,8.4,49.4,8.6,49.7,9c0.1,0.1,0.2,0.2,0.3,0.2C50.3,9.3,50.8,8,51.4,8 c0.6,0,1,0.4,0.5,1.2c-0.5,0.8-0.3,1.7-0.1,1.8c0.2,0.1,2.6-1.7,0.5-5.9c-2.1-4.2-7.5-1.9-8.4-1.1c0,0-0.9,0.8-1.6,0.1 C42.4,4,41.6,10.1,44.9,8.8z" class="st2239"/><path d="M52.6,26.3v3.2c0,0.4-0.2,0.7-0.4,1l-6.5,5.9l0.7,1.1l8.6-6.2c0.4-0.3,0.7-0.7,0.7-1.2l0.6-5.5L52.6,26.3 z" class="st2237"/><path d="M55.2,16.1c0,0,2,3,2.7,10.8c0,0-3.4,1.1-5.3,0.5C50.7,26.8,55.2,16.1,55.2,16.1z" class="st0"/><path d="M52.2,19.9c0,0-0.8,4.1-0.8,6.1c0,0.5,0.3,1,0.8,1.2l0,0V19.9z" class="st148"/><ellipse cx="42.9" cy="4.5" class="st2239" rx="1.5" ry="1"/><ellipse cx="44.9" cy="3.5" class="st2239" rx="1.5" ry="1"/><ellipse cx="43.9" cy="3.5" class="st2239" rx="1.5" ry="1"/><ellipse cx="44.9" cy="2.5" class="st2239" rx="1.5" ry="1"/><ellipse cx="46.9" cy="2.5" class="st2239" rx="1.5" ry="1"/><ellipse cx="47.9" cy="1.5" class="st2239" rx="1.5" ry="1"/><ellipse cx="49.9" cy="1.5" class="st2239" rx="1.5" ry="1"/><ellipse cx="50.9" cy="2.5" class="st2239" rx="1.5" ry="1"/><ellipse cx="46.9" cy="3.5" class="st2239" rx="1.5" ry="1"/><ellipse cx="48.9" cy="2.5" class="st2239" rx="1.5" ry="1"/><ellipse cx="50.9" cy="3.5" class="st2239" rx="1.5" ry="1"/><ellipse cx="52.9" cy="3.5" class="st2239" rx="1" ry="1.5" transform="matrix(0.9544 -0.2986 0.2986 0.9544 1.3602 15.9627)"/><ellipse cx="50.9" cy="4.5" class="st2239" rx="1.5" ry="1"/><ellipse cx="52.9" cy="5.5" class="st2239" rx="1" ry="1.5" transform="matrix(0.9871 -0.1603 0.1603 0.9871 -0.2019 8.5564)"/><ellipse cx="49.9" cy="8.5" class="st2239" rx="1" ry="1.5" transform="matrix(0.9871 -0.1603 0.1603 0.9871 -0.7217 8.1142)"/><ellipse cx="47.9" cy="8.5" class="st2239" rx="1.5" ry="1" transform="matrix(0.9871 -0.1603 0.1603 0.9871 -0.7476 7.7935)"/><ellipse cx="45.9" cy="8.5" class="st2239" rx="1.5" ry="1" transform="matrix(0.9871 -0.1603 0.1603 0.9871 -0.7735 7.4729)"/><ellipse cx="52.9" cy="7.5" class="st2239" rx="1" ry="1.5" transform="matrix(0.9871 -0.1603 0.1603 0.9871 -0.5226 8.5822)"/><ellipse cx="42.9" cy="6.5" class="st2239" rx="1" ry="1.5" transform="matrix(0.866 -0.5 0.5 0.866 2.4857 22.3359)"/></g><g><path d="M50.5,40.5l-1.4-0.2l-9.3-5.4c-0.3-0.2-0.8-0.2-1.2,0l-6.6,3.8l-0.9-0.1v0.9l0,0c0,0.1,0.1,0.2,0.2,0.3 l10.5,6.1c0.3,0.2,0.8,0.2,1.2,0l7.2-4.1c0.2-0.1,0.3-0.3,0.3-0.4l0,0V40.5z" class="st2240"/><path d="M43.6,37.1l-0.7-0.4h-7.3l-3.6,2.1l-0.9-0.1v0.9l0,0c0,0.1,0.1,0.2,0.2,0.3l10.5,6.1 c0.2,0.1,0.4,0.1,0.6,0.1L43.6,37.1z" class="st2241"/><path d="M31.6,38.7l-0.4-0.1v0.9l0,0c0,0.1,0.1,0.2,0.2,0.3l0.2,0.1V38.7z" class="st2242"/><path d="M42,45.9c0.3,0.1,0.7,0.1,1-0.1v-1.5h-1V45.9z" class="st2243"/><path d="M41.9,45l-10.5-6.1c-0.3-0.2-0.3-0.5,0.1-0.7l7.2-4.1c0.3-0.2,0.9-0.2,1.2,0l10.5,6.1 c0.3,0.2,0.3,0.5-0.1,0.7L43.1,45C42.8,45.2,42.2,45.2,41.9,45z" class="st125"/><path d="M41.8,44.1L33,39.1c-0.2-0.1-0.2-0.4,0.1-0.6l3.8-2.2c0.3-0.2,0.7-0.2,1,0l8.7,5.1 c0.2,0.1,0.2,0.4-0.1,0.6l-3.8,2.2C42.4,44.2,42,44.2,41.8,44.1z" class="st2244"/></g><path d="M39.1,33.9L39,34.7c-0.1,0.6-0.1,1.2,0,1.9l0.1,0.6c0.1,0.4,0.4,0.6,0.7,0.7l0,0c0.3,0.1,0.6-0.1,0.6-0.4 l0.2-1.6c0,0,0.4,0.5,0.6,0.5c0.2,0-0.2-1.6-0.6-2.4C40.1,33.1,39.1,33.9,39.1,33.9z" class="st2237"/><path d="M42.6,22.4l-1.1,2.2c-0.3,0.5-0.4,1.1-0.5,1.7L40.6,34l-1.5,0l-0.7-8.6c0-0.3,0-0.5,0-0.8l0.8-4.4 L42.6,22.4z" class="st2237"/><g><path d="M41.6,45.6l-0.9-1.2l-9.3-5.4c-0.3-0.2-0.5-0.6-0.5-1l0-7.6l-0.5-0.7l0.5-0.3l0,0c0.1-0.1,0.2-0.1,0.4,0 l10.5,6.1c0.3,0.2,0.5,0.6,0.5,1l0,8.3c0,0.2-0.1,0.4-0.2,0.4l0,0L41.6,45.6z" class="st2240"/><path d="M35.2,41.3l-0.7-0.4l-3.6-6.3l0-4.1l-0.5-0.7l0.5-0.3l0,0c0.1-0.1,0.2-0.1,0.4,0l10.5,6.1 c0.2,0.1,0.3,0.3,0.4,0.5L35.2,41.3z" class="st2241"/><path d="M30.6,30.1l-0.2-0.3l0.5-0.3l0,0c0.1-0.1,0.2-0.1,0.4,0l0.2,0.1L30.6,30.1z" class="st2242"/><path d="M41.8,35.6c0.2,0.2,0.4,0.6,0.4,0.9l-1,0.6l-0.5-0.9L41.8,35.6z" class="st2243"/><path d="M41.2,35.9l-10.5-6.1c-0.3-0.2-0.5,0-0.5,0.4l0,8.3c0,0.4,0.2,0.9,0.5,1l10.5,6.1c0.3,0.2,0.5,0,0.5-0.4 l0-8.3C41.8,36.5,41.5,36,41.2,35.9z" class="st125"/></g><path d="M46.4,37.5l-0.2,0.3c-0.2,0.4-0.5,0.7-0.9,1l-1,0.6c-0.3,0.2-0.7,0.2-1.1,0c0,0,0,0,0,0 c-0.3-0.2-0.4-0.7-0.1-1l1.1-1.1c0,0-0.6,0.5-0.8,0.3c-0.1-0.1,0.6-0.8,1.1-0.8c0.6,0,1.1-0.5,1.1-0.5L46.4,37.5z" class="st2237"/><path d="M43.6,12.2c0,0-4,4.4-5.6,8.3c0,0,1.4,2.5,4.7,3.4C46.1,24.9,43.6,12.2,43.6,12.2z" class="st0"/><path d="M42,23.7l0.6-6.3l-1.5,5.9C41.4,23.4,41.7,23.6,42,23.7z" class="st148"/><path d="M46.6,11.3L45.6,11c0,0,0.5,0.8,1.3,1c0.7,0.2,0.9-0.4,0.9-0.4L46.6,11.3z" class="st125"/></g></g><g><path d="M44.3,21.1c0,0.1-0.1,0.2-0.1,0.3c-0.1,0.1-0.1,0.2-0.2,0.2c-0.1,0.1-0.2,0.1-0.3,0.1c-0.1,0-0.2,0-0.3,0 l-0.6-0.1l0.2-1.6l0.6,0.1c0.1,0,0.2,0.1,0.3,0.1c0.1,0.1,0.2,0.1,0.2,0.2c0.1,0.1,0.1,0.2,0.1,0.3C44.3,20.9,44.3,21,44.3,21.1z M44.2,21.1c0-0.1,0-0.2,0-0.3c0-0.1-0.1-0.2-0.1-0.2c0-0.1-0.1-0.1-0.2-0.2c-0.1,0-0.2-0.1-0.3-0.1l-0.5-0.1l-0.2,1.4l0.5,0.1 c0.1,0,0.2,0,0.3,0c0.1,0,0.2-0.1,0.2-0.1c0.1-0.1,0.1-0.1,0.2-0.2C44.2,21.3,44.2,21.2,44.2,21.1z" class="st125"/><path d="M45.1,20.9c0.1,0,0.1,0,0.2,0.1c0.1,0,0.1,0.1,0.1,0.1c0,0,0.1,0.1,0.1,0.2c0,0.1,0,0.1,0,0.2c0,0,0,0,0,0 c0,0,0,0,0,0l-0.8-0.1l0,0c0,0.1,0,0.2,0,0.2c0,0.1,0,0.1,0.1,0.2c0,0,0.1,0.1,0.1,0.1c0,0,0.1,0,0.2,0.1c0.1,0,0.1,0,0.2,0 s0.1,0,0.1,0c0,0,0.1,0,0.1,0s0,0,0,0c0,0,0,0,0,0l0,0c0,0-0.1,0-0.1,0.1c0,0-0.1,0-0.1,0c0,0-0.1,0-0.1,0c0,0-0.1,0-0.1,0 c-0.1,0-0.1,0-0.2-0.1c-0.1,0-0.1-0.1-0.2-0.1c0-0.1-0.1-0.1-0.1-0.2c0-0.1,0-0.2,0-0.3c0-0.1,0-0.2,0.1-0.2c0-0.1,0.1-0.1,0.1-0.2 c0.1,0,0.1-0.1,0.2-0.1C45,20.9,45.1,20.9,45.1,20.9z M45.1,21c-0.1,0-0.1,0-0.2,0c-0.1,0-0.1,0-0.1,0.1c0,0-0.1,0.1-0.1,0.1 c0,0-0.1,0.1-0.1,0.2l0.8,0.1c0-0.1,0-0.1,0-0.2c0-0.1,0-0.1-0.1-0.1c0,0-0.1-0.1-0.1-0.1C45.2,21,45.2,21,45.1,21z" class="st125"/><path d="M46.1,22.2L46.1,22.2L45.7,21l0.1,0c0,0,0,0,0,0c0,0,0,0,0,0l0.2,0.9c0,0,0,0,0,0.1c0,0,0,0,0,0c0,0,0,0,0,0 c0,0,0,0,0,0l0.5-0.8c0,0,0,0,0,0c0,0,0,0,0,0l0.1,0L46.1,22.2z" class="st125"/><path d="M48.5,21.8c0,0.1-0.1,0.2-0.1,0.3c-0.1,0.1-0.1,0.2-0.2,0.2c-0.1,0.1-0.2,0.1-0.3,0.1c-0.1,0-0.2,0-0.3,0 c-0.1,0-0.2-0.1-0.3-0.1c-0.1-0.1-0.2-0.1-0.2-0.2C47,22.1,47,22,46.9,21.9c0-0.1,0-0.2,0-0.3c0-0.1,0.1-0.2,0.1-0.3 c0.1-0.1,0.1-0.2,0.2-0.2c0.1-0.1,0.2-0.1,0.3-0.1c0.1,0,0.2,0,0.3,0c0.1,0,0.2,0.1,0.3,0.1c0.1,0.1,0.2,0.1,0.2,0.2 c0.1,0.1,0.1,0.2,0.1,0.3C48.5,21.5,48.5,21.7,48.5,21.8z M48.4,21.8c0-0.1,0-0.2,0-0.3c0-0.1-0.1-0.2-0.1-0.2s-0.1-0.1-0.2-0.2 c-0.1,0-0.2-0.1-0.3-0.1c-0.1,0-0.2,0-0.3,0c-0.1,0-0.2,0.1-0.2,0.1c-0.1,0.1-0.1,0.1-0.2,0.2c0,0.1-0.1,0.2-0.1,0.3 c0,0.1,0,0.2,0,0.3c0,0.1,0.1,0.2,0.1,0.2c0,0.1,0.1,0.1,0.2,0.2c0.1,0,0.2,0.1,0.3,0.1c0.1,0,0.2,0,0.3,0c0.1,0,0.2-0.1,0.2-0.1 c0.1-0.1,0.1-0.1,0.2-0.2S48.4,21.9,48.4,21.8z" class="st125"/><path d="M48.6,23l0.2-1.5l0.1,0c0,0,0,0,0,0c0,0,0,0,0,0l0,0.2c0.1-0.1,0.1-0.1,0.2-0.1c0.1,0,0.2,0,0.2,0 c0.1,0,0.2,0.1,0.3,0.2c0.1,0.1,0.1,0.3,0.1,0.4c0,0.1,0,0.2-0.1,0.2c0,0.1-0.1,0.1-0.1,0.2c-0.1,0-0.1,0.1-0.2,0.1 c-0.1,0-0.1,0-0.2,0c-0.1,0-0.1,0-0.2-0.1c-0.1,0-0.1-0.1-0.1-0.1L48.8,23L48.6,23z M49.4,21.7c-0.1,0-0.2,0-0.2,0 c-0.1,0-0.1,0.1-0.2,0.1l-0.1,0.6c0,0.1,0.1,0.1,0.1,0.2c0.1,0,0.1,0.1,0.2,0.1c0.1,0,0.1,0,0.2,0c0.1,0,0.1,0,0.1-0.1 c0,0,0.1-0.1,0.1-0.1c0-0.1,0-0.1,0.1-0.2c0-0.2,0-0.3,0-0.4S49.5,21.7,49.4,21.7z" class="st125"/><path d="M50.8,21.9C50.7,21.9,50.7,22,50.8,21.9C50.7,22,50.7,21.9,50.8,21.9c-0.1,0-0.1,0-0.1,0c0,0,0,0-0.1,0 c0,0-0.1,0-0.1,0c0,0-0.1,0-0.1,0c0,0-0.1,0-0.1,0c0,0-0.1,0-0.1,0.1c0,0,0,0,0,0.1c0,0,0,0.1,0,0.1c0,0,0,0,0.1,0.1 c0,0,0.1,0,0.1,0.1c0,0,0.1,0,0.1,0.1c0,0,0.1,0,0.1,0.1c0,0,0.1,0,0.1,0.1c0,0,0,0.1,0.1,0.1c0,0,0,0.1,0,0.1c0,0,0,0.1,0,0.1 c0,0-0.1,0.1-0.1,0.1c0,0-0.1,0-0.1,0.1c-0.1,0-0.1,0-0.2,0c-0.1,0-0.2,0-0.2-0.1c-0.1,0-0.1-0.1-0.1-0.1l0,0c0,0,0,0,0,0 c0,0,0,0,0,0c0,0,0,0,0,0c0,0,0,0,0.1,0c0,0,0,0,0.1,0.1c0,0,0.1,0,0.1,0c0,0,0.1,0,0.1,0c0,0,0.1,0,0.1,0c0,0,0.1,0,0.1-0.1 c0,0,0-0.1,0-0.1c0,0,0-0.1,0-0.1c0,0,0-0.1-0.1-0.1c0,0-0.1,0-0.1-0.1c0,0-0.1,0-0.1-0.1c0,0-0.1,0-0.1-0.1c0,0-0.1,0-0.1-0.1 c0,0,0-0.1-0.1-0.1c0,0,0-0.1,0-0.1c0,0,0-0.1,0-0.1c0,0,0.1-0.1,0.1-0.1s0.1,0,0.1,0c0,0,0.1,0,0.2,0c0.1,0,0.1,0,0.2,0.1 C50.7,21.8,50.7,21.9,50.8,21.9L50.8,21.9z" class="st125"/></g></svg>