<svg xmlns="http://www.w3.org/2000/svg" xmlns:xlink="http://www.w3.org/1999/xlink" id="Layer_1" x="0" y="0" version="1.1" viewBox="0 0 316.4 104" xml:space="preserve" style="enable-background:new 0 0 316.4 104"><style type="text/css">.st0{fill:#a30000}.st1{fill:#c00}.st2{fill:#820000}.st3{fill:#0a0908}</style><switch><g><g><path d="M26,49.4l-14.2,5.2c0.2,2.3,0.6,4.5,1.1,6.7l13.5-4.9C26,54.1,25.8,51.7,26,49.4" class="st0"/><path d="M88.7,33.7c-1-2.1-2.2-4-3.5-5.9L71.1,33c1.6,1.7,3,3.6,4.2,5.6L88.7,33.7z" class="st0"/><path d="M57.5,29.6c2.9,1.3,5.5,3.2,7.7,5.5l14.2-5.2C66.4,11.7,41,7.5,22.8,20.5c-11.6,8.3-18,22-16.9,36.2 l14.2-5.2C21.1,37,33.8,26.2,48.2,27.2C51.4,27.5,54.6,28.3,57.5,29.6" class="st1"/><path d="M13.8,60.9L0.4,65.8c1.2,4.9,3.4,9.6,6.3,13.7l14.1-5.1C17.2,70.7,14.8,66,13.8,60.9" class="st1"/><path d="M72.6,55.6c-0.2,3.2-1,6.2-2.4,9.1c-6.2,13.2-21.8,18.9-35,12.8c-2.9-1.3-5.5-3.2-7.7-5.5l-14.2,5.2 c4,5.7,9.5,10.2,15.8,13.2c20.3,9.4,44.5,0.7,54-19.6c3-6.3,4.2-13.3,3.7-20.3L72.6,55.6z" class="st1"/><path d="M76.2,38.3l-13.5,4.9c2.5,4.5,3.7,9.7,3.3,14.8l14.2-5.1C79.7,47.8,78.4,42.8,76.2,38.3" class="st1"/><path d="M25.9,52.2c0-1,0-1.9,0.1-2.9l-14.2,5.2c0.1,0.9,0.2,1.8,0.3,2.7L25.9,52.2z" class="st2"/><path d="M86.7,29.9c-0.4-0.8-0.9-1.4-1.4-2.1L71.1,33c0.6,0.6,1.2,1.3,1.7,2L86.7,29.9z" class="st2"/><path d="M13.4,77.2c1.1,1.5,2.3,3,3.6,4.4l15.4-5.6c-1.8-1.1-3.4-2.4-4.9-3.9L13.4,77.2z M86.8,50.4l-14.2,5.1 c-0.2,2.1-0.6,4.1-1.2,6.1L86.8,56C87,54.1,86.9,52.3,86.8,50.4" class="st0"/><path d="M115.1,45.5l-3-6.2h-2v6.2h-5V27.2h8.2c1,0,2,0.1,2.9,0.3c0.8,0.2,1.6,0.5,2.3,1c0.6,0.5,1.1,1.1,1.4,1.8 c0.4,0.9,0.5,1.8,0.5,2.8c0.1,1.2-0.3,2.4-0.9,3.4c-0.6,0.9-1.5,1.6-2.5,2l3.7,7L115.1,45.5L115.1,45.5z M114.9,31.9 c-0.5-0.4-1.1-0.6-1.7-0.5h-3v4h3c0.6,0.1,1.3-0.1,1.8-0.5c0.4-0.4,0.6-1,0.5-1.5C115.4,32.8,115.2,32.3,114.9,31.9z" class="st3"/><path d="M124.6,45.5V27.2h14v4.3h-9v2.5h5.4v4.2h-5.4v3.1h9.2v4.3H124.6z" class="st3"/><path d="M158,40.6c-0.4,1.1-1,2.1-1.9,2.8c-0.9,0.8-2,1.3-3.1,1.6c-1.4,0.3-2.8,0.5-4.3,0.5h-5.9V27.2h6.4 c1.3,0,2.6,0.1,3.9,0.4c1.1,0.3,2.1,0.8,3,1.5c0.8,0.8,1.5,1.7,1.9,2.8c0.5,1.4,0.7,2.8,0.7,4.3C158.6,37.7,158.4,39.2,158,40.6z M153.2,34.2c-0.1-0.6-0.4-1.1-0.7-1.5c-0.3-0.4-0.8-0.7-1.3-0.8c-0.6-0.2-1.3-0.3-2-0.3h-1.3v9.6h1.1c0.7,0,1.4-0.1,2-0.3 c0.5-0.1,1-0.4,1.4-0.8c0.4-0.4,0.6-1,0.8-1.5c0.2-0.7,0.2-1.5,0.2-2.3C153.4,35.6,153.3,34.9,153.2,34.2z" class="st3"/><path d="M182.7,45.5v-7.2H177v7.2h-5.2V27.2h5.2v6.7h5.7v-6.7h5.2v18.3H182.7L182.7,45.5z" class="st3"/><path d="M204.1,45.5l-1-3.2h-5.5l-1,3.2h-5.4l6.6-18.3h5.1l6.6,18.3H204.1L204.1,45.5z M201.6,37.1 c-0.2-0.6-0.3-1.1-0.4-1.5l-0.3-1.2c-0.1-0.3-0.2-0.7-0.3-1s-0.1-0.6-0.2-1c-0.1,0.3-0.1,0.6-0.2,0.9c-0.1,0.3-0.2,0.6-0.3,1 l-0.3,1.2l-0.4,1.5l-0.3,1.2h3L201.6,37.1z" class="st3"/><path d="M220,31.6v13.9h-5.1V31.6h-5.1v-4.4h15.3v4.4H220L220,31.6z" class="st3"/><path d="M231.9,30.4c-0.2,0.6-0.7,1-1.2,1.2c-0.6,0.2-1.3,0.2-1.9,0c-0.6-0.2-1-0.7-1.2-1.2c-0.2-0.6-0.2-1.3,0-1.9 c0.2-0.6,0.7-1,1.2-1.2c0.6-0.2,1.3-0.2,1.9,0c0.6,0.2,1,0.7,1.2,1.2C232.1,29.1,232.1,29.8,231.9,30.4z M231.5,28.7 c-0.2-0.5-0.6-0.9-1-1c-0.5-0.2-1.1-0.2-1.6,0c-0.5,0.2-0.9,0.6-1,1c-0.2,0.5-0.2,1.1,0,1.6c0.2,0.5,0.6,0.9,1,1 c0.5,0.2,1.1,0.2,1.6,0c0.5-0.2,0.9-0.6,1-1C231.7,29.7,231.7,29.2,231.5,28.7z M230.6,29.4c-0.1,0.1-0.2,0.2-0.4,0.3l0.5,1h-0.5 l-0.5-1h-0.5v1h-0.4v-2.6h1.1c0.1,0,0.2,0,0.3,0c0.1,0,0.2,0.1,0.3,0.1c0.1,0.1,0.1,0.1,0.2,0.2c0,0.1,0.1,0.2,0.1,0.3 C230.8,29.1,230.7,29.2,230.6,29.4L230.6,29.4z M230.2,28.7c-0.1-0.1-0.2-0.1-0.3-0.1h-0.7v0.8h0.7c0.1,0,0.2,0,0.3-0.1 C230.4,29.1,230.4,28.9,230.2,28.7C230.2,28.7,230.2,28.7,230.2,28.7z" class="st3"/><path d="M125.9,70.1c-0.5,1.6-1.3,3.1-2.3,4.5c-1,1.2-2.2,2.2-3.6,2.9c-2.9,1.4-6.4,1.4-9.3,0 c-1.4-0.7-2.6-1.7-3.6-2.9c-1-1.3-1.8-2.8-2.3-4.5c-0.6-1.8-0.8-3.8-0.8-5.7c0-1.9,0.3-3.9,0.8-5.7c0.5-1.6,1.2-3.1,2.3-4.5 c1-1.2,2.2-2.2,3.6-2.9c2.9-1.4,6.4-1.4,9.3,0c1.4,0.7,2.6,1.7,3.6,2.9c1,1.3,1.8,2.9,2.3,4.5c0.6,1.8,0.8,3.8,0.8,5.7 C126.7,66.3,126.4,68.2,125.9,70.1z M123,59.7c-0.4-1.3-1-2.5-1.8-3.6c-0.7-0.9-1.6-1.7-2.7-2.3c-1-0.5-2.2-0.8-3.3-0.8 c-1.1,0-2.3,0.3-3.3,0.8c-1,0.6-1.9,1.3-2.6,2.3c-0.8,1.1-1.4,2.3-1.7,3.6c-0.4,1.5-0.6,3.1-0.6,4.7c0,1.6,0.2,3.2,0.6,4.7 c0.4,1.3,1,2.5,1.8,3.6c0.7,0.9,1.6,1.7,2.6,2.3c1,0.5,2.2,0.8,3.3,0.8c1.1,0,2.3-0.3,3.3-0.8c1-0.6,1.9-1.3,2.6-2.3 c0.8-1.1,1.4-2.3,1.7-3.6c0.4-1.5,0.6-3.1,0.6-4.7C123.7,62.8,123.4,61.3,123,59.7z" class="st3"/><path d="M152.2,62.5c-0.4,1-1.1,1.9-1.9,2.7c-0.9,0.7-1.9,1.3-2.9,1.6c-1.2,0.4-2.5,0.6-3.8,0.5H137v10.8h-3V50.7 h10.3c1.2,0,2.3,0.2,3.5,0.5c1,0.3,2,0.8,2.8,1.5c0.8,0.7,1.4,1.6,1.8,2.6C153.1,57.6,153.1,60.2,152.2,62.5z M148.4,54.9 c-1.2-1-2.7-1.5-4.3-1.4H137v11.1h6.7c4.1,0,6.2-1.9,6.2-5.6C149.9,57.5,149.4,56,148.4,54.9L148.4,54.9z" class="st3"/><path d="M159.3,78.1V50.7h16.6v2.8h-13.5v8.6h7.8v2.8h-7.8v10.5h14.1v2.8H159.3z" class="st3"/><path d="M200.3,78.1l-12-18.8c-0.2-0.2-0.3-0.5-0.5-0.8l-0.5-1c-0.2-0.3-0.4-0.6-0.5-0.9c-0.1-0.2-0.3-0.5-0.4-0.7 v22.2h-3V50.7h3l11.9,19.1c0.2,0.2,0.3,0.5,0.5,0.8l0.5,1c0.2,0.3,0.4,0.6,0.5,0.9c0.1,0.2,0.3,0.5,0.4,0.7V50.7h3v27.4 L200.3,78.1L200.3,78.1z" class="st3"/><path d="M227.8,73.9c-0.4,0.9-1,1.8-1.8,2.4c-0.8,0.7-1.8,1.3-2.9,1.6c-1.2,0.4-2.5,0.6-3.8,0.6 c-1.8,0-3.6-0.3-5.2-1.1c-1.5-0.7-2.8-1.6-4-2.7l2-2.3c1,1,2.1,1.8,3.4,2.4c1.2,0.6,2.6,0.9,3.9,0.9c1.5,0.1,3.1-0.4,4.3-1.3 c1.1-0.8,1.6-2.1,1.6-3.4c0-0.6-0.1-1.2-0.3-1.7c-0.2-0.6-0.6-1.1-1.1-1.4c-0.6-0.5-1.3-1-2-1.3c-1-0.5-2.1-0.9-3.1-1.3 c-1.3-0.4-2.5-1-3.7-1.6c-0.9-0.5-1.7-1-2.4-1.7c-0.6-0.6-1-1.3-1.3-2.1c-0.3-0.8-0.4-1.7-0.4-2.6c0-1,0.2-2,0.6-2.9 c0.4-0.9,1-1.6,1.7-2.2c0.8-0.6,1.7-1.1,2.7-1.4c1.1-0.3,2.3-0.5,3.5-0.5c1.6,0,3.2,0.2,4.7,0.8c1.3,0.5,2.6,1.3,3.7,2.2l-2,2.4 c-0.9-0.8-1.9-1.4-3-1.9c-1.1-0.5-2.4-0.7-3.6-0.6c-0.8,0-1.6,0.1-2.4,0.3c-0.6,0.2-1.2,0.5-1.7,0.9c-0.4,0.3-0.7,0.8-0.9,1.3 c-0.2,0.5-0.3,1-0.3,1.5c0,0.5,0.1,1,0.2,1.5c0.2,0.5,0.5,1,0.9,1.3c0.6,0.5,1.3,1,2,1.4c1.1,0.5,2.2,1,3.4,1.4 c1.3,0.5,2.6,1,3.8,1.6c0.9,0.5,1.7,1.1,2.4,1.8c0.6,0.6,1,1.3,1.3,2.2c0.3,0.9,0.4,1.8,0.4,2.7C228.4,72,228.2,73,227.8,73.9z" class="st3"/><path d="M252.6,78.1V65.2H239v12.9h-3V50.7h3v11.7h13.6V50.7h3v27.4L252.6,78.1L252.6,78.1z" class="st3"/><path d="M264.2,78.1V50.7h3v27.4L264.2,78.1L264.2,78.1z" class="st3"/><path d="M278.9,53.5v9.1h7.5v2.8h-7.5v12.8h-3V50.7H292v2.8H278.9L278.9,53.5z" class="st3"/><path d="M307.9,53.5v24.6h-3V53.5h-8.1v-2.8H316v2.8H307.9z" class="st3"/></g></g></switch></svg>