<svg xmlns="http://www.w3.org/2000/svg" xmlns:xlink="http://www.w3.org/1999/xlink" id="Layer_1" x="0" y="0" version="1.1" viewBox="0 0 171.3 53.9" xml:space="preserve" style="enable-background:new 0 0 171.3 53.9"><style type="text/css">.st0{fill:#001959}</style><g><g><path d="M30.4,13.3c-1.1,0-2,0.4-2.8,1.2c-0.8,0.8-1.1,1.7-1.1,2.8s0.4,2,1.1,2.8c0.8,0.8,1.7,1.2,2.8,1.2 c1.1,0,2-0.4,2.8-1.2c0.8-0.8,1.2-1.7,1.2-2.8c0-1.1-0.4-2-1.2-2.8C32.5,13.7,31.6,13.3,30.4,13.3z" class="st0"/><path d="M138.7,34.8c0,3.6-0.2,6-0.5,7.2c-0.3,1.1-0.8,2.2-1.6,3.2c-0.8,1-1.7,1.8-2.8,2.4c-2.2,1.1-4.7,1-6.2,0.3 c-0.8-0.3-1.4-0.8-1.9-1.5c-0.5-0.7-0.9-1.6-1.2-2.6c-0.3-1-0.4-3.1-0.4-6.1v-14h-5.6v15c0,3.9,0.4,6.8,1.3,8.7 c0.9,1.9,2.2,3.5,3.9,4.6c1.7,1.1,3.7,1.7,5.8,1.7c3.4,0,6.5-1.3,9.1-3.8V53h5.7V23.8h-5.7V34.8z" class="st0"/><path d="M98.3,23c-2.1,0-4,0.5-5.9,1.6c-1.5,0.9-2.8,2.1-3.8,3.6c-0.7-1.5-1.8-2.6-3.1-3.5c-1.7-1.1-3.6-1.7-5.7-1.7 c-3.2,0-5.9,1.2-8.2,3.5v-2.7h-5.6V53h5.6V40.5c0-3.4,0.3-5.8,0.9-7.3c0.6-1.4,1.5-2.5,2.7-3.4c1.2-0.8,2.5-1.3,3.9-1.3 c1.3,0,2.4,0.3,3.3,1c0.9,0.7,1.4,1.5,1.7,2.6c0.3,1.2,0.4,3.1,0.4,5.9v15H90V41.3c0-3.4,0.3-5.9,0.8-7.6c0.5-1.6,1.4-2.9,2.7-3.8 c1.3-0.9,2.6-1.4,4-1.4c1.4,0,2.6,0.3,3.4,1c0.9,0.7,1.4,1.5,1.6,2.5c0.3,1.1,0.4,2.8,0.4,5.1V53h5.7V37.1c0-5.4-1-9-3-11.1 C103.6,24.1,101.1,23,98.3,23z" class="st0"/><path d="M164.2,35.8c-2-1-3.4-1.9-4.1-2.6c-0.7-0.6-1-1.3-1-2c0-0.8,0.3-1.4,0.8-1.9c1.6-1.5,4.2-1,7.2,1.8l0.5,0.5 l3.7-3.8l-0.5-0.5c-2.8-2.8-5.6-4.2-8.2-4.2c-2.6,0-4.8,0.8-6.4,2.3c-1.6,1.6-2.4,3.5-2.4,5.7c0,2.2,0.6,4,1.7,5.4 c1.1,1.3,2.7,2.5,4.8,3.6c2,1,3.3,1.9,4.1,2.6c0.7,0.6,1,1.4,1,2.3c0,0.9-0.4,1.7-1.2,2.5c-0.8,0.7-1.7,1.1-2.8,1.1 c-1.7,0-3.4-1-5.1-3l-0.5-0.6l-3.6,4l0.4,0.5c2.4,3,5.4,4.6,9,4.6c2.6,0,4.8-0.9,6.6-2.7c1.8-1.8,2.7-4,2.7-6.5 c0-2-0.6-3.8-1.8-5.2C167.9,38.2,166.3,36.9,164.2,35.8z" class="st0"/><polygon points="5.9 13.3 0 13.3 0 53 20 53 20 47.4 5.9 47.4" class="st0"/><rect width="5.7" height="29.3" x="27.6" y="23.8" class="st0"/><path d="M52.2,13.3h-5.7v10.5h-4.8v5.1h4.8v19.4c0,1.9,0.5,3.4,1.4,4.3c0.9,0.9,2.3,1.4,4.1,1.4 c0.9,0,2.2-0.1,3.8-0.4l0.6-0.1v-4.9h-3.2c-0.7,0-1-0.1-1,0c0-0.1-0.1-0.3-0.1-0.8V28.9h5.5v-5.1h-5.5V13.3z" class="st0"/></g></g></svg>