<svg xmlns="http://www.w3.org/2000/svg" xmlns:xlink="http://www.w3.org/1999/xlink" id="Layer_1" x="0" y="0" version="1.1" viewBox="0 0 45 55" xml:space="preserve" style="enable-background:new 0 0 45 55"><style type="text/css">.st1,.st2,.st3{stroke-miterlimit:10}.st1{fill:none;stroke:#383842;stroke-linecap:round}.st2,.st3{fill:#fff;stroke:#f26d00}.st3{stroke:#383842}.st4{fill:#383842}.st5{fill:none;stroke:#383842;stroke-miterlimit:10}</style><path d="M34.2,48.369H1.877c-0.644,0-1.167-0.522-1.167-1.167V1.962c0-0.644,0.522-1.167,1.167-1.167H34.2	c0.644,0,1.167,0.522,1.167,1.167v45.24C35.366,47.846,34.844,48.369,34.2,48.369z" class="st2"/><path d="M39.584,54.24H7.261c-0.644,0-1.167-0.522-1.167-1.167V7.001c0-0.644,0.522-1.167,1.167-1.167h32.323	c0.644,0,1.167,0.522,1.167,1.167v46.072C40.75,53.717,40.228,54.24,39.584,54.24z" class="st3"/><circle cx="12.533" cy="13.109" r="3.818" class="st4"/><line x1="19.252" x2="38.341" y1="11.382" y2="11.382" class="st1"/><line x1="19.252" x2="38.341" y1="15.911" y2="15.911" class="st1"/><line x1="8.716" x2="38.341" y1="25.984" y2="25.984" class="st1"/><line x1="8.716" x2="38.341" y1="20.896" y2="20.896" class="st1"/><line x1="8.716" x2="38.341" y1="30.565" y2="30.565" class="st1"/><line x1="8.716" x2="38.341" y1="35.147" y2="35.147" class="st1"/><line x1="8.716" x2="38.341" y1="39.728" y2="39.728" class="st1"/><line x1="8.716" x2="38.341" y1="44.309" y2="44.309" class="st1"/><line x1="8.716" x2="38.341" y1="48.89" y2="48.89" class="st1"/><g><path d="M17.618,48.369l1.085-4.493l21.864-17.039c0.334-0.26,0.815-0.206,1.083,0.122l2.455,3.007 c0.264,0.323,0.215,0.799-0.109,1.061l-21.42,17.342H17.618z" class="st3"/><line x1="38.649" x2="42.159" y1="28.331" y2="32.514" class="st5"/><line x1="21.252" x2="24.956" y1="41.889" y2="46.442" class="st5"/></g></svg>