<svg xmlns="http://www.w3.org/2000/svg" xmlns:xlink="http://www.w3.org/1999/xlink" id="Layer_1" x="0" y="0" version="1.1" viewBox="0 0 45 55" xml:space="preserve" style="enable-background:new 0 0 45 55"><style type="text/css">.st0,.st1{fill:#fff;stroke:#383842;stroke-linecap:round;stroke-miterlimit:10}.st1{fill:none}.st4{fill:#383842}.st6{fill:none}.st7{font-family:&apos;Bebas&apos;}.st8{font-size:10px}.st9{fill:none;stroke:#f26d00;stroke-linecap:round;stroke-miterlimit:10}</style><path d="M14.645,44.188H2.011c-0.644,0-1.167-0.522-1.167-1.167V2.043c0-0.644,0.522-1.167,1.167-1.167h40.978	c0.644,0,1.167,0.522,1.167,1.167v40.978c0,0.644-0.522,1.167-1.167,1.167H31.801" class="st0"/><polyline points="38.957 54.081 22.992 54.081 7.681 54.081" class="st1"/><circle cx="23.203" cy="38.393" r="4.17" class="st4"/><path d="M15.813,54.153v-7.099c0,0,0.037-3.259,3.684-3.259h7.488c0,0,3.608-0.466,3.608,3.026v7.332H15.813z" class="st4"/><rect width="23.263" height="14.843" x="11.041" y="12.657" class="st6"/><text class="st4 st7 st8" transform="matrix(1 0 0 1 11.0413 21.5673)">DEMO</text><polyline points="8.176 14.836 5.903 17.677 8.176 20.392" class="st9"/><polyline points="36.064 14.836 38.337 17.677 36.064 20.392" class="st9"/></svg>