<svg xmlns="http://www.w3.org/2000/svg" xmlns:xlink="http://www.w3.org/1999/xlink" id="Layer_1" x="0" y="0" version="1.1" viewBox="0 0 55 55" xml:space="preserve" style="enable-background:new 0 0 55 55"><style type="text/css">.st0{fill:#0063ff}.st1{opacity:.62;fill:url(#SVGID_1_)}.st133{fill:#1a1918}.st134{fill:#fdfdfd}.st136{fill:none;stroke:#fff;stroke-width:.7;stroke-linecap:round;stroke-miterlimit:10}</style><linearGradient id="SVGID_1_" x1="49.458" x2="2.156" y1="9.411" y2="43.965" gradientUnits="userSpaceOnUse"><stop offset=".151" style="stop-color:#fff"/><stop offset=".223" style="stop-color:#f6f9ff"/><stop offset=".343" style="stop-color:#dceaff"/><stop offset=".496" style="stop-color:#b2d0ff"/><stop offset=".676" style="stop-color:#79adff"/><stop offset=".877" style="stop-color:#3080ff"/><stop offset="1" style="stop-color:#0063ff"/></linearGradient><path d="M1.6,15.2L20.8,3.5C21.3,3.1,21.9,3,22.6,3H49c1.9,0,3.4,1.5,3.4,3.3v27.5c0,1-0.5,2-1.3,2.6L28.9,53.6	c-0.7-0.1,0.1,0.3-1.4,0.3L1.9,18.9C0.9,17.3,0.1,16.1,1.6,15.2z" class="st1"/><path d="M27.8,54H2.5c-1,0-1.8-0.8-1.8-1.8V16.8c0-1,0.8-1.8,1.8-1.8h25.4c1,0,1.8,0.8,1.8,1.8v35.4	C29.6,53.2,28.8,54,27.8,54z" class="st0"/><g><path d="M15.2,20.2c3.3,0,5.9,2.7,5.9,5.9c0,3.3-2.6,5.9-5.9,5.9c-3.3,0-5.9-2.6-5.9-5.9 C9.3,22.9,11.9,20.2,15.2,20.2z M14.2,26.4C14.2,26.5,14.2,26.5,14.2,26.4c0.9,0.8,1.8,1.5,2.7,2.2c0.2,0.1,0.3,0.3,0.5,0.4 c0.2,0.2,0.6,0,0.6-0.2c0-0.1,0-0.2,0-0.3c-0.5-1.3-1.1-2.6-1.6-3.8c-0.2-0.6-0.5-1.2-0.7-1.8c-0.1-0.1-0.1-0.2-0.3-0.3 c-0.2,0-0.4,0.1-0.5,0.3c-0.8,2-1.7,4.1-2.5,6.1c0,0,0,0,0,0.1c0.3,0,0.5,0,0.8,0c0,0,0.1,0,0.1-0.1c0.2-0.4,0.3-0.9,0.5-1.3 C13.9,27.2,14,26.8,14.2,26.4z" class="st133"/><path d="M14.2,26.4c-0.2,0.4-0.3,0.8-0.5,1.2c-0.2,0.4-0.4,0.9-0.5,1.3c0,0,0,0.1-0.1,0.1c-0.3,0-0.5,0-0.8,0 c0,0,0-0.1,0-0.1c0.8-2,1.7-4.1,2.5-6.1c0.1-0.2,0.2-0.3,0.5-0.3c0.2,0,0.2,0.1,0.3,0.3c0.2,0.6,0.5,1.2,0.7,1.8 c0.5,1.3,1.1,2.6,1.6,3.8c0,0.1,0.1,0.2,0,0.3c-0.1,0.3-0.4,0.4-0.6,0.2c-0.2-0.1-0.3-0.2-0.5-0.4C16,27.9,15.1,27.2,14.2,26.4 C14.2,26.5,14.2,26.5,14.2,26.4z M16.8,27.6C16.8,27.6,16.8,27.6,16.8,27.6c-0.5-1.2-1-2.5-1.5-3.8c-0.3,0.6-0.5,1.3-0.8,1.9 c0,0,0,0.1,0,0.1c0.4,0.3,0.9,0.7,1.3,1C16.1,27.1,16.4,27.3,16.8,27.6z" class="st134"/><path d="M16.8,27.6c-0.3-0.2-0.6-0.5-0.9-0.7c-0.4-0.3-0.9-0.7-1.3-1c0,0-0.1,0,0-0.1c0.3-0.6,0.5-1.3,0.8-1.9 C15.8,25.1,16.3,26.3,16.8,27.6C16.8,27.6,16.8,27.6,16.8,27.6z" class="st133"/></g><line x1="4.4" x2="21.4" y1="37" y2="37" class="st136"/><line x1="4.4" x2="23.4" y1="41.7" y2="41.7" class="st136"/><line x1="4.4" x2="26.4" y1="45.9" y2="45.9" class="st136"/><line x1="4.4" x2="21.4" y1="50.5" y2="50.5" class="st136"/></svg>