<svg xmlns="http://www.w3.org/2000/svg" xmlns:xlink="http://www.w3.org/1999/xlink" id="Layer_1" x="0" y="0" version="1.1" viewBox="0 0 55 55" xml:space="preserve" style="enable-background:new 0 0 55 55"><style type="text/css">.st1{fill:url(#SVGID_1_)}.st1,.st2,.st3{opacity:.62}.st2{fill:url(#SVGID_2_)}.st3{fill:url(#SVGID_3_)}.st7,.st8{enable-background:new}.st8{clip-path:url(#SVGID_6_)}.st9{fill:#3d84f1}.st10{fill:#3a82f1}.st11{fill:#3781f2}.st12{fill:#357ff3}.st13{fill:#327ef3}.st14{fill:#2f7cf4}.st15{fill:#2c7af5}.st16{fill:#2979f5}.st17{clip-path:url(#SVGID_8_);enable-background:new}.st18{fill:#4688ef}.st19{fill:#2175f7}.st20{fill:#4487ef}.st21{fill:#146efa}.st22{clip-path:url(#SVGID_10_);enable-background:new}.st23{fill:#4085f0}.st24{fill:#4387ef}.st26{clip-path:url(#SVGID_13_)}.st26,.st27,.st32{enable-background:new}.st27{clip-path:url(#SVGID_15_)}.st32{clip-path:url(#SVGID_19_)}.st109{stroke-width:.3;stroke-dasharray:1}.st109,.st119{fill:none;stroke:#0063ff;stroke-miterlimit:10}</style><linearGradient id="SVGID_1_" x1="11.428" x2="11.428" y1="22.188" y2="51.088" gradientUnits="userSpaceOnUse"><stop offset=".08" style="stop-color:#fff"/><stop offset=".158" style="stop-color:#f6f9ff"/><stop offset=".288" style="stop-color:#dceaff"/><stop offset=".454" style="stop-color:#b2d0ff"/><stop offset=".649" style="stop-color:#79adff"/><stop offset=".867" style="stop-color:#3080ff"/><stop offset="1" style="stop-color:#0063ff"/></linearGradient><polygon points=".2 23 .2 42.4 12.3 47.4 22.6 42.4 22.6 23" class="st1"/><linearGradient id="SVGID_2_" x1="27.401" x2="27.401" y1="1.591" y2="30.491" gradientUnits="userSpaceOnUse"><stop offset=".08" style="stop-color:#fff"/><stop offset=".158" style="stop-color:#f6f9ff"/><stop offset=".288" style="stop-color:#dceaff"/><stop offset=".454" style="stop-color:#b2d0ff"/><stop offset=".649" style="stop-color:#79adff"/><stop offset=".867" style="stop-color:#3080ff"/><stop offset="1" style="stop-color:#0063ff"/></linearGradient><polygon points="16.2 2.4 16.2 21.8 28.3 26.8 38.6 21.8 38.6 2.4" class="st2"/><linearGradient id="SVGID_3_" x1="43.422" x2="43.422" y1="24.117" y2="51.843" gradientUnits="userSpaceOnUse"><stop offset=".08" style="stop-color:#fff"/><stop offset=".158" style="stop-color:#f6f9ff"/><stop offset=".288" style="stop-color:#dceaff"/><stop offset=".454" style="stop-color:#b2d0ff"/><stop offset=".649" style="stop-color:#79adff"/><stop offset=".867" style="stop-color:#3080ff"/><stop offset="1" style="stop-color:#0063ff"/></linearGradient><polygon points="32.2 24.9 32.2 43.5 44.3 48.3 54.6 43.5 54.6 24.9" class="st3"/><path d="M20.6,49.3c-5.9-2.6-10.1-8.5-10.1-15.4c0-9.3,7.5-16.8,16.8-16.8S44,24.7,44,34c0,6.7-4,12.5-9.7,15.2" class="st109"/><g><g><g class="st7"><g class="st7"><defs><path id="SVGID_103_" d="M38.7,19.1l0,2.4c0,0.6-0.4,1.2-1.2,1.6l0-2.4C38.3,20.3,38.7,19.7,38.7,19.1z" class="st7"/></defs><clipPath id="SVGID_4_"><use xlink:href="#SVGID_103_" style="overflow:visible"/></clipPath><g style="clip-path:url(#SVGID_4_);enable-background:new"><path d="M38.7,19.1l0,2.4c0,0,0,0,0,0L38.7,19.1C38.7,19.1,38.7,19.1,38.7,19.1" class="st9"/><path d="M38.7,19.2l0,2.4c0,0.1,0,0.2,0,0.2l0-2.4C38.7,19.3,38.7,19.2,38.7,19.2" class="st10"/><path d="M38.6,19.4l0,2.4c0,0.1,0,0.2-0.1,0.2l0-2.4C38.6,19.5,38.6,19.5,38.6,19.4" class="st11"/><path d="M38.6,19.6l0,2.4c0,0.1-0.1,0.2-0.1,0.2l0-2.4C38.5,19.8,38.6,19.7,38.6,19.6" class="st12"/><path d="M38.5,19.8l0,2.4c0,0.1-0.1,0.2-0.2,0.2l0-2.4C38.4,20,38.4,19.9,38.5,19.8" class="st13"/><path d="M38.3,20.1l0,2.4c-0.1,0.1-0.2,0.2-0.2,0.3l0-2.4C38.2,20.3,38.2,20.2,38.3,20.1" class="st14"/><path d="M38.1,20.3l0,2.4c-0.1,0.1-0.3,0.3-0.5,0.4l0-2.4C37.7,20.6,37.9,20.5,38.1,20.3" class="st15"/><path d="M37.6,20.7l0,2.4c0,0,0,0,0,0L37.6,20.7C37.5,20.7,37.5,20.7,37.6,20.7" class="st16"/></g></g><g class="st7"><defs><path id="SVGID_105_" d="M16.2,21.5l0-2.4c0,0.6,0.4,1.2,1.2,1.7l0,2.4C16.6,22.7,16.2,22.1,16.2,21.5z" class="st7"/></defs><clipPath id="SVGID_6_"><use xlink:href="#SVGID_105_" style="overflow:visible"/></clipPath><g class="st8"><path d="M17.4,20.7l0,2.4c-0.8-0.5-1.2-1.1-1.2-1.7l0-2.4C16.2,19.7,16.6,20.3,17.4,20.7" class="st18"/></g></g><g><polygon points="37.5 20.7 37.5 23.2 30.3 27.4 30.3 24.9" class="st19"/></g><g><polygon points="24.6 24.9 24.6 27.4 17.4 23.2 17.4 20.7" class="st20"/></g><g><path d="M37.5,17.5c1.6,0.9,1.6,2.4,0,3.3l-7.2,4.2c-1.6,0.9-4.1,0.9-5.7,0l-7.3-4.2c-1.6-0.9-1.6-2.4,0-3.3 l7.2-4.2c1.6-0.9,4.1-0.9,5.7,0L37.5,17.5z" class="st21"/></g><g class="st7"><defs><path id="SVGID_107_" d="M30.3,24.9l0,2.4c-1.6,0.9-4.1,0.9-5.7,0l0-2.4C26.2,25.8,28.7,25.8,30.3,24.9z" class="st7"/></defs><clipPath id="SVGID_8_"><use xlink:href="#SVGID_107_" style="overflow:visible"/></clipPath><g class="st17"><path d="M30.3,24.9l0,2.4c-0.3,0.2-0.6,0.3-0.9,0.4l0-2.4C29.7,25.2,30,25.1,30.3,24.9" class="st16"/><path d="M29.4,25.3l0,2.4c-0.2,0.1-0.5,0.1-0.8,0.2l0-2.4C28.9,25.5,29.2,25.4,29.4,25.3" class="st15"/><path d="M28.7,25.5l0,2.4c-0.2,0-0.3,0.1-0.5,0.1l0-2.4C28.3,25.6,28.5,25.5,28.7,25.5" class="st14"/><path d="M28.1,25.6l0,2.4c-0.1,0-0.3,0-0.4,0l0-2.4C27.9,25.6,28,25.6,28.1,25.6" class="st13"/><path d="M27.7,25.6l0,2.4c-0.1,0-0.3,0-0.4,0l0-2.4C27.4,25.6,27.6,25.6,27.7,25.6" class="st12"/><path d="M27.3,25.6l0,2.4c-0.1,0-0.3,0-0.4,0l0-2.4C27,25.6,27.2,25.6,27.3,25.6" class="st11"/><path d="M26.9,25.6l0,2.4c-0.1,0-0.3,0-0.4,0l0-2.4C26.6,25.6,26.8,25.6,26.9,25.6" class="st10"/><path d="M26.5,25.6l0,2.4c-0.1,0-0.3,0-0.4-0.1l0-2.4C26.2,25.5,26.4,25.5,26.5,25.6" class="st9"/><path d="M26.1,25.5l0,2.4c-0.1,0-0.3-0.1-0.4-0.1l0-2.4C25.8,25.4,26,25.5,26.1,25.5" class="st23"/><path d="M25.7,25.4l0,2.4c-0.2,0-0.3-0.1-0.5-0.2l0-2.4C25.4,25.3,25.5,25.3,25.7,25.4" class="st24"/><path d="M25.2,25.2l0,2.4c-0.2-0.1-0.4-0.2-0.6-0.3l0-2.4C24.8,25,25,25.1,25.2,25.2" class="st18"/></g></g></g></g></g><g><g><g class="st7"><g class="st7"><defs><path id="SVGID_109_" d="M22.7,41.1l0,2.4c0,0.6-0.4,1.2-1.2,1.6l0-2.4C22.3,42.3,22.7,41.7,22.7,41.1z" class="st7"/></defs><clipPath id="SVGID_10_"><use xlink:href="#SVGID_109_" style="overflow:visible"/></clipPath><g class="st22"><path d="M22.7,41.1l0,2.4c0,0,0,0,0,0L22.7,41.1C22.7,41.1,22.7,41.1,22.7,41.1" class="st9"/><path d="M22.7,41.1l0,2.4c0,0.1,0,0.2,0,0.2l0-2.4C22.7,41.3,22.7,41.2,22.7,41.1" class="st10"/><path d="M22.6,41.4l0,2.4c0,0.1,0,0.2-0.1,0.2l0-2.4C22.6,41.5,22.6,41.4,22.6,41.4" class="st11"/><path d="M22.6,41.6l0,2.4c0,0.1-0.1,0.2-0.1,0.2l0-2.4C22.5,41.8,22.6,41.7,22.6,41.6" class="st12"/><path d="M22.5,41.8l0,2.4c0,0.1-0.1,0.2-0.2,0.2l0-2.4C22.4,42,22.4,41.9,22.5,41.8" class="st13"/><path d="M22.3,42.1l0,2.4c-0.1,0.1-0.2,0.2-0.2,0.3l0-2.4C22.2,42.2,22.2,42.2,22.3,42.1" class="st14"/><path d="M22.1,42.3l0,2.4c-0.1,0.1-0.3,0.3-0.5,0.4l0-2.4C21.7,42.6,21.9,42.5,22.1,42.3" class="st15"/><path d="M21.6,42.7l0,2.4c0,0,0,0,0,0L21.6,42.7C21.5,42.7,21.5,42.7,21.6,42.7" class="st16"/></g></g><g class="st7"><defs><path id="SVGID_111_" d="M0.2,43.5l0-2.4c0,0.6,0.4,1.2,1.2,1.7l0,2.4C0.6,44.7,0.2,44.1,0.2,43.5z" class="st7"/></defs><clipPath id="SVGID_11_"><use xlink:href="#SVGID_111_" style="overflow:visible"/></clipPath><g style="clip-path:url(#SVGID_11_);enable-background:new"><path d="M1.4,42.7l0,2.4c-0.8-0.5-1.2-1.1-1.2-1.7l0-2.4C0.2,41.7,0.6,42.3,1.4,42.7" class="st18"/></g></g><g><polygon points="21.5 42.7 21.5 45.2 14.3 49.4 14.3 46.9" class="st19"/></g><g><polygon points="8.6 46.9 8.6 49.4 1.4 45.2 1.4 42.7" class="st20"/></g><g><path d="M21.5,39.5c1.6,0.9,1.6,2.4,0,3.3l-7.2,4.2c-1.6,0.9-4.1,0.9-5.7,0l-7.3-4.2c-1.6-0.9-1.6-2.4,0-3.3 l7.2-4.2c1.6-0.9,4.1-0.9,5.7,0L21.5,39.5z" class="st21"/></g><g class="st7"><defs><path id="SVGID_113_" d="M14.3,46.9l0,2.4c-1.6,0.9-4.1,0.9-5.7,0l0-2.4C10.2,47.8,12.7,47.8,14.3,46.9z" class="st7"/></defs><clipPath id="SVGID_13_"><use xlink:href="#SVGID_113_" style="overflow:visible"/></clipPath><g class="st26"><path d="M14.3,46.9l0,2.4c-0.3,0.2-0.6,0.3-0.9,0.4l0-2.4C13.7,47.2,14,47.1,14.3,46.9" class="st16"/><path d="M13.4,47.3l0,2.4c-0.2,0.1-0.5,0.1-0.8,0.2l0-2.4C12.9,47.5,13.2,47.4,13.4,47.3" class="st15"/><path d="M12.7,47.5l0,2.4c-0.2,0-0.3,0.1-0.5,0.1l0-2.4C12.3,47.6,12.5,47.5,12.7,47.5" class="st14"/><path d="M12.1,47.6l0,2.4c-0.1,0-0.3,0-0.4,0l0-2.4C11.8,47.6,12,47.6,12.1,47.6" class="st13"/><path d="M11.7,47.6l0,2.4c-0.1,0-0.3,0-0.4,0l0-2.4C11.4,47.6,11.6,47.6,11.7,47.6" class="st12"/><path d="M11.3,47.6l0,2.4c-0.1,0-0.3,0-0.4,0l0-2.4C11,47.6,11.2,47.6,11.3,47.6" class="st11"/><path d="M10.9,47.6l0,2.4c-0.1,0-0.3,0-0.4,0l0-2.4C10.6,47.6,10.8,47.6,10.9,47.6" class="st10"/><path d="M10.5,47.5l0,2.4c-0.1,0-0.3,0-0.4-0.1l0-2.4C10.2,47.5,10.4,47.5,10.5,47.5" class="st9"/><path d="M10.1,47.5l0,2.4c-0.1,0-0.3-0.1-0.4-0.1l0-2.4C9.8,47.4,10,47.4,10.1,47.5" class="st23"/><path d="M9.7,47.4l0,2.4c-0.2,0-0.3-0.1-0.5-0.2l0-2.4C9.4,47.3,9.5,47.3,9.7,47.4" class="st24"/><path d="M9.2,47.2l0,2.4c-0.2-0.1-0.4-0.2-0.6-0.3l0-2.4C8.8,47,9,47.1,9.2,47.2" class="st18"/></g></g></g></g></g><g><g><g class="st7"><g class="st7"><defs><path id="SVGID_115_" d="M54.7,41.1l0,2.4c0,0.6-0.4,1.2-1.2,1.6l0-2.4C54.3,42.3,54.7,41.7,54.7,41.1z" class="st7"/></defs><clipPath id="SVGID_15_"><use xlink:href="#SVGID_115_" style="overflow:visible"/></clipPath><g class="st27"><path d="M54.7,41.1l0,2.4c0,0,0,0,0,0L54.7,41.1C54.7,41.1,54.7,41.1,54.7,41.1" class="st9"/><path d="M54.7,41.1l0,2.4c0,0.1,0,0.2,0,0.2l0-2.4C54.7,41.3,54.7,41.2,54.7,41.1" class="st10"/><path d="M54.6,41.4l0,2.4c0,0.1,0,0.2-0.1,0.2l0-2.4C54.6,41.5,54.6,41.5,54.6,41.4" class="st11"/><path d="M54.6,41.6l0,2.4c0,0.1-0.1,0.2-0.1,0.2l0-2.4C54.5,41.8,54.6,41.7,54.6,41.6" class="st12"/><path d="M54.5,41.8l0,2.4c0,0.1-0.1,0.2-0.2,0.2l0-2.4C54.4,42,54.4,41.9,54.5,41.8" class="st13"/><path d="M54.3,42.1l0,2.4c-0.1,0.1-0.2,0.2-0.2,0.3l0-2.4C54.2,42.3,54.2,42.2,54.3,42.1" class="st14"/><path d="M54.1,42.3l0,2.4c-0.1,0.1-0.3,0.3-0.5,0.4l0-2.4C53.8,42.6,53.9,42.5,54.1,42.3" class="st15"/><path d="M53.6,42.7l0,2.4c0,0,0,0,0,0L53.6,42.7C53.5,42.7,53.5,42.7,53.6,42.7" class="st16"/></g></g><g class="st7"><defs><path id="SVGID_117_" d="M32.2,43.5l0-2.4c0,0.6,0.4,1.2,1.2,1.7l0,2.4C32.6,44.7,32.2,44.1,32.2,43.5z" class="st7"/></defs><clipPath id="SVGID_17_"><use xlink:href="#SVGID_117_" style="overflow:visible"/></clipPath><g style="clip-path:url(#SVGID_17_);enable-background:new"><path d="M33.4,42.7l0,2.4c-0.8-0.5-1.2-1.1-1.2-1.7l0-2.4C32.2,41.7,32.6,42.3,33.4,42.7" class="st18"/></g></g><g><polygon points="53.5 42.7 53.5 45.2 46.3 49.4 46.3 46.9" class="st19"/></g><g><polygon points="40.6 46.9 40.6 49.4 33.4 45.2 33.4 42.7" class="st20"/></g><g><path d="M53.5,39.5c1.6,0.9,1.6,2.4,0,3.3l-7.2,4.2c-1.6,0.9-4.1,0.9-5.7,0l-7.3-4.2c-1.6-0.9-1.6-2.4,0-3.3 l7.2-4.2c1.6-0.9,4.1-0.9,5.7,0L53.5,39.5z" class="st21"/></g><g class="st7"><defs><path id="SVGID_119_" d="M46.3,46.9l0,2.4c-1.6,0.9-4.1,0.9-5.7,0l0-2.4C42.2,47.8,44.7,47.8,46.3,46.9z" class="st7"/></defs><clipPath id="SVGID_19_"><use xlink:href="#SVGID_119_" style="overflow:visible"/></clipPath><g class="st32"><path d="M46.3,46.9l0,2.4c-0.3,0.2-0.6,0.3-0.9,0.4l0-2.4C45.7,47.2,46,47.1,46.3,46.9" class="st16"/><path d="M45.4,47.3l0,2.4c-0.2,0.1-0.5,0.1-0.8,0.2l0-2.4C44.9,47.5,45.2,47.4,45.4,47.3" class="st15"/><path d="M44.7,47.5l0,2.4c-0.2,0-0.3,0.1-0.5,0.1l0-2.4C44.3,47.6,44.5,47.5,44.7,47.5" class="st14"/><path d="M44.2,47.6l0,2.4c-0.1,0-0.3,0-0.4,0l0-2.4C43.9,47.6,44,47.6,44.2,47.6" class="st13"/><path d="M43.7,47.6l0,2.4c-0.1,0-0.3,0-0.4,0l0-2.4C43.4,47.6,43.6,47.6,43.7,47.6" class="st12"/><path d="M43.3,47.6l0,2.4c-0.1,0-0.3,0-0.4,0l0-2.4C43,47.6,43.2,47.6,43.3,47.6" class="st11"/><path d="M42.9,47.6l0,2.4c-0.1,0-0.3,0-0.4,0l0-2.4C42.6,47.6,42.8,47.6,42.9,47.6" class="st10"/><path d="M42.5,47.5l0,2.4c-0.1,0-0.3,0-0.4-0.1l0-2.4C42.2,47.5,42.4,47.5,42.5,47.5" class="st9"/><path d="M42.1,47.5l0,2.4c-0.1,0-0.3-0.1-0.4-0.1l0-2.4C41.8,47.4,42,47.4,42.1,47.5" class="st23"/><path d="M41.7,47.4l0,2.4c-0.2,0-0.3-0.1-0.5-0.2l0-2.4C41.4,47.3,41.5,47.3,41.7,47.4" class="st24"/><path d="M41.2,47.2l0,2.4c-0.2-0.1-0.4-0.2-0.6-0.3l0-2.4C40.8,47,41,47.1,41.2,47.2" class="st18"/></g></g></g></g></g><g><path d="M25.7,51.4c-0.4,0.5-1.1,0.8-1.8,0.8c-1.3,0-2.4-1.1-2.4-2.4s1.1-2.4,2.4-2.4c1,0,1.8,0.6,2.2,1.4" class="st119"/><path d="M29.2,47.9c0.4-0.3,0.9-0.5,1.5-0.5c1.3,0,2.4,1.1,2.4,2.4s-1.1,2.4-2.4,2.4c-1,0-1.8-0.6-2.2-1.4" class="st119"/><line x1="25.6" x2="29.2" y1="51.5" y2="47.9" class="st119"/></g></svg>