<svg xmlns="http://www.w3.org/2000/svg" xmlns:xlink="http://www.w3.org/1999/xlink" id="Layer_1" x="0" y="0" version="1.1" viewBox="0 0 55 55" xml:space="preserve" style="enable-background:new 0 0 55 55"><style type="text/css">.st1{opacity:.62;fill:url(#SVGID_1_)}.st7,.st8{enable-background:new}.st8{clip-path:url(#SVGID_6_)}.st9{fill:#3d84f1}.st10{fill:#3a82f1}.st11{fill:#3781f2}.st12{fill:#357ff3}.st13{fill:#327ef3}.st14{fill:#2f7cf4}.st15{fill:#2c7af5}.st16{fill:#2979f5}.st17{clip-path:url(#SVGID_8_);enable-background:new}.st18{fill:#4688ef}.st19{fill:#2175f7}.st20{fill:#4487ef}.st21{fill:#146efa}.st22{clip-path:url(#SVGID_10_);enable-background:new}.st23{fill:#4085f0}.st24{fill:#4387ef}.st26,.st27{clip-path:url(#SVGID_13_);enable-background:new}.st27{clip-path:url(#SVGID_15_)}.st29{opacity:.749;fill:#fff}.st30,.st31{opacity:.549;fill:#fff}.st31{opacity:.6}.st33{clip-path:url(#SVGID_21_);enable-background:new}.st36,.st37{opacity:.7412;fill:#fff}.st37{opacity:.898}.st39{opacity:.85}.st43,.st44{opacity:.8392;fill:#fff}.st44{opacity:.9373}</style><linearGradient id="SVGID_1_" x1="27.737" x2="27.737" y1="-3.689" y2="41.522" gradientUnits="userSpaceOnUse"><stop offset=".178" style="stop-color:#fff"/><stop offset=".244" style="stop-color:#f6faff"/><stop offset=".349" style="stop-color:#dfebff"/><stop offset=".481" style="stop-color:#b8d4ff"/><stop offset=".634" style="stop-color:#83b3ff"/><stop offset=".803" style="stop-color:#408aff"/><stop offset=".948" style="stop-color:#0063ff"/></linearGradient><polygon points="8.9 .8 8.9 28.9 29.3 36 46.6 28.9 46.6 .8" class="st1"/><g><g><g class="st7"><g class="st7"><defs><path id="SVGID_12_" d="M37.8,37.3l0,2.4c0,0.6-0.4,1.2-1.2,1.6l0-2.4C37.5,38.4,37.8,37.8,37.8,37.3z" class="st7"/></defs><clipPath id="SVGID_2_"><use xlink:href="#SVGID_12_" style="overflow:visible"/></clipPath><g style="clip-path:url(#SVGID_2_);enable-background:new"><path d="M37.8,37.3l0,2.4c0,0,0,0,0,0L37.8,37.3C37.8,37.3,37.8,37.3,37.8,37.3" class="st9"/><path d="M37.8,37.3l0,2.4c0,0.1,0,0.2,0,0.2l0-2.4C37.8,37.4,37.8,37.4,37.8,37.3" class="st10"/><path d="M37.8,37.5l0,2.4c0,0.1,0,0.2-0.1,0.2l0-2.4C37.8,37.7,37.8,37.6,37.8,37.5" class="st11"/><path d="M37.8,37.7l0,2.4c0,0.1-0.1,0.2-0.1,0.2l0-2.4C37.7,37.9,37.7,37.8,37.8,37.7" class="st12"/><path d="M37.7,38l0,2.4c0,0.1-0.1,0.2-0.2,0.2l0-2.4C37.6,38.1,37.6,38.1,37.7,38" class="st13"/><path d="M37.5,38.2l0,2.4c-0.1,0.1-0.2,0.2-0.2,0.3l0-2.4C37.3,38.4,37.4,38.3,37.5,38.2" class="st14"/><path d="M37.2,38.5l0,2.4c-0.1,0.1-0.3,0.3-0.5,0.4l0-2.4C36.9,38.7,37.1,38.6,37.2,38.5" class="st15"/><path d="M36.7,38.9l0,2.4c0,0,0,0,0,0L36.7,38.9C36.7,38.9,36.7,38.9,36.7,38.9" class="st16"/></g></g><g class="st7"><defs><path id="SVGID_14_" d="M0.2,39.7l0-2.4c0,0.6,0.4,1.2,1.2,1.7l0,2.4C0.5,40.9,0.2,40.3,0.2,39.7z" class="st7"/></defs><clipPath id="SVGID_3_"><use xlink:href="#SVGID_14_" style="overflow:visible"/></clipPath><g style="clip-path:url(#SVGID_3_);enable-background:new"><path d="M1.3,38.9l0,2.4c-0.8-0.5-1.2-1.1-1.2-1.7l0-2.4C0.2,37.8,0.6,38.4,1.3,38.9" class="st18"/></g></g><g><polygon points="36.7 38.9 36.7 41.3 21.9 49.9 21.9 47.5" class="st19"/></g><g><polygon points="16.2 47.5 16.2 49.9 1.3 41.3 1.3 38.9" class="st20"/></g><g><path d="M36.7,35.6c1.6,0.9,1.6,2.4,0,3.3l-14.8,8.6c-1.6,0.9-4.1,0.9-5.7,0L1.3,38.9c-1.6-0.9-1.6-2.4,0-3.3 L16.1,27c1.6-0.9,4.1-0.9,5.7,0L36.7,35.6z" class="st21"/><g class="st7"><defs><path id="SVGID_16_" d="M36.7,35.6c1.6,0.9,1.6,2.4,0,3.3l-14.8,8.6c-1.6,0.9-4.1,0.9-5.7,0L1.3,38.9 c-1.6-0.9-1.6-2.4,0-3.3L16.1,27c1.6-0.9,4.1-0.9,5.7,0L36.7,35.6z" class="st7"/></defs><clipPath id="SVGID_4_"><use xlink:href="#SVGID_16_" style="overflow:visible"/></clipPath><g style="clip-path:url(#SVGID_4_)"><g><g><g><polyline points="15.8 33.1 14.1 32.1 4.6 37.6 6.3 38.6 15.8 33.1" class="st29"/><polyline points="18.5 36.6 16.7 35.6 8.9 40.1 10.7 41.1 18.5 36.6" class="st29"/><polyline points="21.1 38.1 19.3 37.1 11.5 41.7 13.3 42.7 21.1 38.1" class="st30"/><polyline points="21.1 41.1 19.4 40.1 14.2 43.2 15.9 44.2 21.1 41.1" class="st30"/><polyline points="23.7 42.7 22 41.7 16.8 44.7 18.5 45.7 23.7 42.7" class="st29"/><polyline points="15 35.6 14.1 35.1 7.2 39.1 8.1 39.6 15 35.6" class="st30"/><path d="M3.7,38.1l-0.9-0.5l-0.1,0L3.7,38.1L3.7,38.1 M5.5,39.1l-0.9-0.5l-0.1,0L5.5,39.1L5.5,39.1 M7.2,40.1 l-0.9-0.5l-0.1,0L7.2,40.1L7.2,40.1 M9,41.1l-0.9-0.5l-0.1,0L9,41.1L9,41.1 M10.7,42.1l-0.9-0.5l-0.1,0L10.7,42.1 L10.7,42.1 M12.5,43.1l-0.9-0.5l-0.1,0L12.5,43.1L12.5,43.1 M14.2,44.1l-0.9-0.5l-0.1,0L14.2,44.1L14.2,44.1 M15.9,45.2 l-0.9-0.5l-0.1,0L15.9,45.2L15.9,45.2 M17.7,46.2l-0.9-0.5l-0.1,0L17.7,46.2L17.7,46.2 M19.4,47.2l-0.9-0.5l-0.1,0 L19.4,47.2L19.4,47.2 M2.9,36.6L2.9,36.6l-1,0.5l0.1,0L2.9,36.6 M4.6,35.6L4.6,35.6l-1,0.5l0.1,0L4.6,35.6 M6.3,34.6 L6.3,34.6l-1,0.5l0.1,0L6.3,34.6 M8.1,33.6L8.1,33.6l-1,0.5l0.1,0L8.1,33.6 M9.8,32.6L9.8,32.6l-1,0.5l0.1,0L9.8,32.6 M11.5,31.6L11.5,31.6l-1,0.5l0.1,0L11.5,31.6 M13.3,30.6L13.3,30.6l-1,0.5l0.1,0L13.3,30.6" class="st31"/></g></g></g></g></g></g><g class="st7"><defs><path id="SVGID_18_" d="M21.9,47.5l0,2.4c-1.6,0.9-4.1,0.9-5.7,0l0-2.4C17.8,48.4,20.3,48.4,21.9,47.5z" class="st7"/></defs><clipPath id="SVGID_6_"><use xlink:href="#SVGID_18_" style="overflow:visible"/></clipPath><g class="st8"><path d="M21.9,47.5l0,2.4c-0.3,0.2-0.6,0.3-0.9,0.4l0-2.4C21.3,47.8,21.6,47.6,21.9,47.5" class="st16"/><path d="M21,47.9l0,2.4c-0.2,0.1-0.5,0.1-0.8,0.2l0-2.4C20.5,48,20.8,47.9,21,47.9" class="st15"/><path d="M20.3,48.1l0,2.4c-0.2,0-0.3,0.1-0.5,0.1l0-2.4C19.9,48.1,20.1,48.1,20.3,48.1" class="st14"/><path d="M19.8,48.1l0,2.4c-0.1,0-0.3,0-0.4,0l0-2.4C19.5,48.1,19.6,48.1,19.8,48.1" class="st13"/><path d="M19.3,48.2l0,2.4c-0.1,0-0.3,0-0.4,0l0-2.4C19,48.2,19.2,48.2,19.3,48.2" class="st12"/><path d="M18.9,48.2l0,2.4c-0.1,0-0.3,0-0.4,0l0-2.4C18.6,48.1,18.8,48.2,18.9,48.2" class="st11"/><path d="M18.5,48.1l0,2.4c-0.1,0-0.3,0-0.4,0l0-2.4C18.2,48.1,18.4,48.1,18.5,48.1" class="st10"/><path d="M18.1,48.1l0,2.4c-0.1,0-0.3,0-0.4-0.1l0-2.4C17.8,48,18,48.1,18.1,48.1" class="st9"/><path d="M17.7,48l0,2.4c-0.1,0-0.3-0.1-0.4-0.1l0-2.4C17.4,48,17.6,48,17.7,48" class="st23"/><path d="M17.3,47.9l0,2.4c-0.2,0-0.3-0.1-0.5-0.2l0-2.4C17,47.8,17.1,47.9,17.3,47.9" class="st24"/><path d="M16.8,47.8l0,2.4c-0.2-0.1-0.4-0.2-0.6-0.3l0-2.4C16.4,47.6,16.6,47.7,16.8,47.8" class="st18"/></g></g></g></g></g><g><g><g class="st7"><g class="st7"><defs><path id="SVGID_20_" d="M54.8,37.3l0,2.4c0,0.6-0.4,1.2-1.2,1.6l0-2.4C54.5,38.4,54.8,37.8,54.8,37.3z" class="st7"/></defs><clipPath id="SVGID_8_"><use xlink:href="#SVGID_20_" style="overflow:visible"/></clipPath><g class="st17"><path d="M54.8,37.3l0,2.4c0,0,0,0,0,0L54.8,37.3C54.8,37.3,54.8,37.3,54.8,37.3" class="st9"/><path d="M54.8,37.3l0,2.4c0,0.1,0,0.2,0,0.2l0-2.4C54.8,37.4,54.8,37.4,54.8,37.3" class="st10"/><path d="M54.8,37.5l0,2.4c0,0.1,0,0.2-0.1,0.2l0-2.4C54.8,37.7,54.8,37.6,54.8,37.5" class="st11"/><path d="M54.8,37.7l0,2.4c0,0.1-0.1,0.2-0.1,0.2l0-2.4C54.7,37.9,54.7,37.8,54.8,37.7" class="st12"/><path d="M54.7,38l0,2.4c0,0.1-0.1,0.2-0.2,0.2l0-2.4C54.6,38.1,54.6,38.1,54.7,38" class="st13"/><path d="M54.5,38.2l0,2.4c-0.1,0.1-0.2,0.2-0.2,0.3l0-2.4C54.3,38.4,54.4,38.3,54.5,38.2" class="st14"/><path d="M54.2,38.5l0,2.4c-0.1,0.1-0.3,0.3-0.5,0.4l0-2.4C53.9,38.7,54.1,38.6,54.2,38.5" class="st15"/><path d="M53.7,38.9l0,2.4c0,0,0,0,0,0L53.7,38.9C53.7,38.9,53.7,38.9,53.7,38.9" class="st16"/></g></g><g class="st7"><defs><path id="SVGID_22_" d="M17.2,39.7l0-2.4c0,0.6,0.4,1.2,1.2,1.7l0,2.4C17.5,40.9,17.2,40.3,17.2,39.7z" class="st7"/></defs><clipPath id="SVGID_10_"><use xlink:href="#SVGID_22_" style="overflow:visible"/></clipPath><g class="st22"><path d="M18.3,38.9l0,2.4c-0.8-0.5-1.2-1.1-1.2-1.7l0-2.4C17.2,37.8,17.6,38.4,18.3,38.9" class="st18"/></g></g><g><polygon points="53.7 38.9 53.7 41.3 38.9 49.9 38.9 47.5" class="st19"/></g><g><polygon points="33.2 47.5 33.2 49.9 18.3 41.3 18.3 38.9" class="st20"/></g><g><path d="M53.7,35.6c1.6,0.9,1.6,2.4,0,3.3l-14.8,8.6c-1.6,0.9-4.1,0.9-5.7,0l-14.9-8.6c-1.6-0.9-1.6-2.4,0-3.3 L33.1,27c1.6-0.9,4.1-0.9,5.7,0L53.7,35.6z" class="st21"/><g class="st7"><defs><path id="SVGID_24_" d="M53.7,35.6c1.6,0.9,1.6,2.4,0,3.3l-14.8,8.6c-1.6,0.9-4.1,0.9-5.7,0l-14.9-8.6 c-1.6-0.9-1.6-2.4,0-3.3L33.1,27c1.6-0.9,4.1-0.9,5.7,0L53.7,35.6z" class="st7"/></defs><clipPath id="SVGID_11_"><use xlink:href="#SVGID_24_" style="overflow:visible"/></clipPath><g style="clip-path:url(#SVGID_11_)"><g><g><g><path d="M37.5,38.6c-1.9,1.1-1.9,3,0,4.1c2,1.1,5.1,1.1,7.1,0c1.9-1.1,1.9-3,0-4.1l-3.5,2L37.5,38.6" class="st36"/><path d="M36.8,38.2l0.7,0.4c1.9-1.1,5.1-1.1,7.1,0l0.7-0.4C45.3,38.2,41.1,35.7,36.8,38.2" class="st31"/><path d="M37.5,38.6l3.5,2l3.5-2C42.6,37.5,39.5,37.5,37.5,38.6" class="st37"/><polyline points="34.7 42.7 33.3 43.5 34.7 44.3 36.1 43.5 34.7 42.7" class="st36"/><polyline points="36.8 43.9 35.4 44.7 36.9 45.6 38.3 44.7 36.8 43.9" class="st36"/><polyline points="48.8 36.9 47.4 37.8 48.8 38.6 50.3 37.8 48.8 36.9" class="st36"/><polyline points="46.7 35.7 45.3 36.5 46.7 37.4 48.1 36.5 46.7 35.7" class="st36"/></g></g></g></g></g></g><g class="st7"><defs><path id="SVGID_26_" d="M38.9,47.5l0,2.4c-1.6,0.9-4.1,0.9-5.7,0l0-2.4C34.8,48.4,37.3,48.4,38.9,47.5z" class="st7"/></defs><clipPath id="SVGID_13_"><use xlink:href="#SVGID_26_" style="overflow:visible"/></clipPath><g class="st26"><path d="M38.9,47.5l0,2.4c-0.3,0.2-0.6,0.3-0.9,0.4l0-2.4C38.3,47.8,38.6,47.6,38.9,47.5" class="st16"/><path d="M38,47.9l0,2.4c-0.2,0.1-0.5,0.1-0.8,0.2l0-2.4C37.5,48,37.8,47.9,38,47.9" class="st15"/><path d="M37.3,48.1l0,2.4c-0.2,0-0.3,0.1-0.5,0.1l0-2.4C36.9,48.1,37.1,48.1,37.3,48.1" class="st14"/><path d="M36.8,48.1l0,2.4c-0.1,0-0.3,0-0.4,0l0-2.4C36.5,48.1,36.6,48.1,36.8,48.1" class="st13"/><path d="M36.3,48.2l0,2.4c-0.1,0-0.3,0-0.4,0l0-2.4C36,48.2,36.2,48.2,36.3,48.2" class="st12"/><path d="M35.9,48.2l0,2.4c-0.1,0-0.3,0-0.4,0l0-2.4C35.6,48.1,35.8,48.2,35.9,48.2" class="st11"/><path d="M35.5,48.1l0,2.4c-0.1,0-0.3,0-0.4,0l0-2.4C35.2,48.1,35.4,48.1,35.5,48.1" class="st10"/><path d="M35.1,48.1l0,2.4c-0.1,0-0.3,0-0.4-0.1l0-2.4C34.8,48,35,48.1,35.1,48.1" class="st9"/><path d="M34.7,48l0,2.4c-0.1,0-0.3-0.1-0.4-0.1l0-2.4C34.4,48,34.6,48,34.7,48" class="st23"/><path d="M34.3,47.9l0,2.4c-0.2,0-0.3-0.1-0.5-0.2l0-2.4C34,47.8,34.1,47.9,34.3,47.9" class="st24"/><path d="M33.8,47.8l0,2.4c-0.2-0.1-0.4-0.2-0.6-0.3l0-2.4C33.4,47.6,33.6,47.7,33.8,47.8" class="st18"/></g></g></g></g></g><g class="st39"><g><g class="st7"><g class="st7"><defs><path id="SVGID_28_" d="M46.6,27.2l0,2.4c0,0.6-0.4,1.2-1.2,1.6l0-2.4C46.2,28.4,46.6,27.8,46.6,27.2z" class="st7"/></defs><clipPath id="SVGID_15_"><use xlink:href="#SVGID_28_" style="overflow:visible"/></clipPath><g class="st27"><path d="M46.6,27.2l0,2.4c0,0,0,0,0,0L46.6,27.2C46.6,27.3,46.6,27.3,46.6,27.2" class="st9"/><path d="M46.6,27.3l0,2.4c0,0.1,0,0.2,0,0.2l0-2.4C46.6,27.4,46.6,27.4,46.6,27.3" class="st10"/><path d="M46.6,27.5l0,2.4c0,0.1,0,0.2-0.1,0.2l0-2.4C46.5,27.7,46.6,27.6,46.6,27.5" class="st11"/><path d="M46.5,27.7l0,2.4c0,0.1-0.1,0.2-0.1,0.2l0-2.4C46.4,27.9,46.5,27.8,46.5,27.7" class="st12"/><path d="M46.4,28l0,2.4c0,0.1-0.1,0.2-0.2,0.2l0-2.4C46.3,28.1,46.4,28.1,46.4,28" class="st13"/><path d="M46.2,28.2l0,2.4c-0.1,0.1-0.2,0.2-0.2,0.3l0-2.4C46.1,28.4,46.2,28.3,46.2,28.2" class="st14"/><path d="M46,28.5l0,2.4c-0.1,0.1-0.3,0.3-0.5,0.4l0-2.4C45.7,28.7,45.8,28.6,46,28.5" class="st15"/><path d="M45.5,28.9l0,2.4c0,0,0,0,0,0L45.5,28.9C45.4,28.9,45.5,28.9,45.5,28.9" class="st16"/></g></g><g class="st7"><defs><path id="SVGID_30_" d="M8.9,29.7l0-2.4c0,0.6,0.4,1.2,1.2,1.7l0,2.4C9.3,30.9,8.9,30.3,8.9,29.7z" class="st7"/></defs><clipPath id="SVGID_17_"><use xlink:href="#SVGID_30_" style="overflow:visible"/></clipPath><g style="clip-path:url(#SVGID_17_);enable-background:new"><path d="M10.1,28.9l0,2.4c-0.8-0.5-1.2-1.1-1.2-1.7l0-2.4C8.9,27.8,9.3,28.4,10.1,28.9" class="st18"/></g></g><g><polygon points="45.4 28.9 45.4 31.3 30.6 39.9 30.6 37.5" class="st19"/></g><g><polygon points="25 37.5 25 39.9 10.1 31.3 10.1 28.9" class="st20"/></g><g><path d="M45.4,25.6c1.6,0.9,1.6,2.4,0,3.3l-14.8,8.6c-1.6,0.9-4.1,0.9-5.7,0l-14.9-8.6c-1.6-0.9-1.6-2.4,0-3.3 L24.9,17c1.6-0.9,4.1-0.9,5.7,0L45.4,25.6z" class="st21"/><g class="st7"><defs><path id="SVGID_32_" d="M45.4,25.6c1.6,0.9,1.6,2.4,0,3.3l-14.8,8.6c-1.6,0.9-4.1,0.9-5.7,0l-14.9-8.6 c-1.6-0.9-1.6-2.4,0-3.3L24.9,17c1.6-0.9,4.1-0.9,5.7,0L45.4,25.6z" class="st7"/></defs><clipPath id="SVGID_19_"><use xlink:href="#SVGID_32_" style="overflow:visible"/></clipPath><g style="clip-path:url(#SVGID_19_)"><g><g><g><path d="M21.5,28.3c-1.5,0.9,2,5.6,2,5.6c0.7,0.4-0.7,1.2-0.7,1.2l16-9.3l-14.6,8.5c0,0,1.4-0.8,0.7-1.2 c0,0-2-2.7-2.3-4.3c-0.3,0-0.5-0.1-0.7-0.1l0-0.1c0.2,0,0.5,0,0.7,0.1c0-0.2,0-0.3,0-0.5c-0.2,0-0.3,0-0.4,0 C21.8,28.2,21.6,28.3,21.5,28.3 M28.2,23.5c-0.4-0.1-0.7-0.2-0.9-0.2l0-0.1C27.6,23.3,27.9,23.3,28.2,23.5L28.2,23.5 M27.1,22.8c-0.5,0.3,0.9,1.7,2.6,4.2c0.4,0.6,0.6,1,0.6,1.4c0.5,0,0.8-0.1,1.1-0.2c0.5-0.3,0.5-0.9-0.3-2 c-0.6-0.9-1.2-1.7-1.7-2.3c-0.1,0-0.2-0.1-0.4-0.1l0-0.1c0.1,0,0.2,0,0.3,0.1c-0.2-0.3-0.4-0.5-0.5-0.7 C27.9,22.8,27.3,22.7,27.1,22.8" class="st31"/><path d="M22.9,27.5c-0.2,0.1-0.3,0.4-0.4,0.7c2,0.2,5.5,1.2,7,0.9c0.1-0.1,0.1-0.2,0.1-0.4l0.1,0 c0,0.1,0,0.3-0.1,0.4c0.1,0,0.3-0.1,0.4-0.1c0.2-0.1,0.3-0.3,0.3-0.6c-1.9,0-5.3-1-6.9-1C23.2,27.4,23,27.4,22.9,27.5 M28.5,22c-0.2,0.1-0.1,0.5,0.3,1c0.6,0.2,1.4,0.4,2.3,0.7c6.3,2,8.4,1.6,8.4,1.6l1.4-0.8c0,0-2.1,0.4-8.4-1.6 C30.1,22.1,28.9,21.8,28.5,22" class="st31"/><path d="M37.4,25.8c-0.3,0-0.6-0.1-1-0.1l0-0.1C36.8,25.7,37.1,25.7,37.4,25.8L37.4,25.8 M28.6,29.6 c-0.3,0-0.6,0-1,0l0-0.1C28,29.6,28.3,29.6,28.6,29.6L28.6,29.6 M35.5,25.5c-0.3-0.1-0.6-0.1-0.9-0.2l0-0.1 C34.9,25.3,35.2,25.4,35.5,25.5L35.5,25.5 M26.6,29.5c-0.3,0-0.6-0.1-1-0.2l0-0.1C26,29.3,26.4,29.4,26.6,29.5L26.6,29.5 M33.6,25.1c-0.3-0.1-0.6-0.2-0.9-0.2l0-0.1C33,24.9,33.3,24.9,33.6,25.1L33.6,25.1 M24.7,29.1c-0.3-0.1-0.6-0.1-1-0.2 l0-0.1C24.1,28.9,24.4,29,24.7,29.1L24.7,29.1 M31.8,24.6c-0.3-0.1-0.6-0.2-0.9-0.3l0.1-0.1C31.2,24.3,31.5,24.4,31.8,24.6 L31.8,24.6 M28.9,23c0.1,0.2,0.3,0.5,0.5,0.7c0.2,0.1,0.4,0.1,0.6,0.2L30,24c-0.2-0.1-0.4-0.1-0.5-0.2 c0.5,0.6,1.1,1.4,1.7,2.3c0.8,1.1,0.8,1.7,0.3,2c-0.2,0.1-0.6,0.2-1.1,0.2c0,0.3-0.1,0.5-0.3,0.6c-0.1,0.1-0.2,0.1-0.4,0.1 c0,0.1-0.1,0.1-0.2,0.2l-0.1,0c0,0,0.1-0.1,0.1-0.1c-1.6,0.3-5.1-0.8-7-0.9c0,0.1,0,0.3,0,0.5c0.1,0,0.2,0,0.3,0l0,0.1 c-0.1,0-0.2,0-0.2,0c0.4,1.7,2.3,4.3,2.3,4.3c0.7,0.4-0.7,1.2-0.7,1.2l14.6-8.5c-0.1,0-0.2,0-0.4,0l0-0.1 c0.3,0,0.5,0,0.5,0l0,0l0.7-0.4c0,0-2.1,0.4-8.4-1.6C30.2,23.4,29.5,23.2,28.9,23" class="st43"/><path d="M38.9,25.8L38.9,25.8C38.9,25.8,38.9,25.8,38.9,25.8L38.9,25.8" class="st31"/><path d="M38.4,25.8L38.4,25.8c0.2,0.1,0.4,0,0.4,0l0.1,0l0,0C38.9,25.7,38.7,25.8,38.4,25.8" class="st44"/><path d="M26.3,23.3c-0.1,0.1,0,0.3,0.1,0.6l0.1,0C26.4,23.6,26.3,23.4,26.3,23.3L26.3,23.3" class="st31"/><path d="M27.3,23.2L27.3,23.2c0.2,0.1,0.5,0.2,0.9,0.3l0.1-0.1C27.9,23.3,27.6,23.3,27.3,23.2" class="st43"/><path d="M26.8,24.4c0.1,0.2,0.2,0.3,0.4,0.5l0.1,0C27.1,24.7,27,24.5,26.8,24.4L26.8,24.4" class="st31"/><path d="M29.1,23.7L29.1,23.7c0.1,0.1,0.2,0.1,0.3,0.2c0,0,0-0.1-0.1-0.1C29.3,23.7,29.2,23.7,29.1,23.7" class="st43"/><path d="M29.4,23.8C29.4,23.8,29.4,23.8,29.4,23.8c0.2,0.1,0.4,0.2,0.6,0.2L30,24 C29.8,23.9,29.6,23.8,29.4,23.8" class="st44"/><path d="M20.8,28.7L20.8,28.7c-0.3,0.2-0.4,0.3-0.4,0.5l0.1,0C20.5,29,20.6,28.9,20.8,28.7L20.8,28.7 L20.8,28.7L20.8,28.7" class="st31"/><path d="M21.8,28.6L21.8,28.6c0.2,0.1,0.5,0.1,0.7,0.1c0,0,0,0,0-0.1C22.3,28.6,22.1,28.6,21.8,28.6" class="st43"/><path d="M22.6,28.7C22.6,28.7,22.6,28.7,22.6,28.7c0.1,0.1,0.2,0.1,0.2,0.1l0-0.1 C22.7,28.7,22.6,28.7,22.6,28.7" class="st44"/><path d="M20.4,29.8c0,0.2,0.1,0.4,0.1,0.6l0.1,0c-0.1-0.2-0.1-0.4-0.1-0.6L20.4,29.8 M27.6,25.5 c0.1,0.2,0.3,0.3,0.4,0.5l0.1,0C28,25.8,27.8,25.6,27.6,25.5L27.6,25.5" class="st31"/><path d="M23.8,28.9L23.8,28.9c0.3,0.1,0.6,0.2,0.9,0.2l0-0.1C24.4,29,24.1,28.9,23.8,28.9 M30.9,24.2 L30.9,24.2c0.3,0.1,0.6,0.2,0.8,0.3l0-0.1C31.5,24.4,31.2,24.3,30.9,24.2" class="st44"/><path d="M28.4,26.5c0.1,0.2,0.3,0.4,0.4,0.5l0.1,0C28.8,26.9,28.6,26.7,28.4,26.5L28.4,26.5 M20.7,30.9 c0.1,0.2,0.2,0.4,0.3,0.6l0.1,0C21,31.3,20.9,31.1,20.7,30.9L20.7,30.9" class="st31"/><path d="M25.7,29.3L25.7,29.3c0.3,0.1,0.6,0.2,0.9,0.2l0-0.1C26.4,29.4,26,29.3,25.7,29.3 M32.7,24.8 L32.7,24.8c0.3,0.1,0.6,0.2,0.9,0.3l0-0.1C33.3,24.9,33,24.9,32.7,24.8" class="st44"/><path d="M29.2,27.6c0.1,0.2,0.2,0.4,0.3,0.6l0.1,0C29.5,28,29.4,27.8,29.2,27.6L29.2,27.6 M21.3,32.1 c0.1,0.2,0.2,0.4,0.3,0.6l0.1,0C21.6,32.4,21.5,32.2,21.3,32.1L21.3,32.1" class="st31"/><path d="M27.6,29.5L27.6,29.5c0.4,0.1,0.7,0.1,1,0.1l0-0.1C28.3,29.6,28,29.6,27.6,29.5 M34.5,25.2L34.5,25.2 c0.3,0.1,0.6,0.2,0.9,0.3l0-0.1C35.2,25.4,34.9,25.3,34.5,25.2" class="st44"/><path d="M22,33.2c0.1,0.2,0.3,0.4,0.4,0.5l0.1,0C22.3,33.5,22.2,33.3,22,33.2L22,33.2" class="st31"/><path d="M29.6,28.7c0,0.2,0,0.3-0.1,0.4c0,0,0.1,0,0.1,0c0.1-0.1,0.1-0.2,0.1-0.4L29.6,28.7" class="st43"/><path d="M36.4,25.6L36.4,25.6c0.4,0.1,0.7,0.2,1,0.2l0-0.1C37.1,25.7,36.8,25.7,36.4,25.6 M29.6,29.1 c0,0.1-0.1,0.1-0.1,0.1l0.1,0c0.1-0.1,0.1-0.1,0.2-0.2C29.6,29.1,29.6,29.1,29.6,29.1" class="st44"/><path d="M22.7,34.3L22.7,34.3L22.7,34.3c0.3,0.2,0.3,0.3,0.2,0.5l0.1,0c0.1-0.2,0.1-0.4-0.1-0.5l0,0 L22.7,34.3L22.7,34.3" class="st31"/><path d="M22.4,35.3c-0.2,0.1-0.3,0.2-0.3,0.2l0.1,0C22.2,35.5,22.3,35.5,22.4,35.3L22.4,35.3" class="st31"/></g></g></g></g></g></g><g class="st7"><defs><path id="SVGID_34_" d="M30.6,37.5l0,2.4c-1.6,0.9-4.1,0.9-5.7,0l0-2.4C26.5,38.4,29.1,38.4,30.6,37.5z" class="st7"/></defs><clipPath id="SVGID_21_"><use xlink:href="#SVGID_34_" style="overflow:visible"/></clipPath><g class="st33"><path d="M30.6,37.5l0,2.4c-0.3,0.2-0.6,0.3-0.9,0.4l0-2.4C30.1,37.8,30.4,37.6,30.6,37.5" class="st16"/><path d="M29.8,37.9l0,2.4c-0.2,0.1-0.5,0.1-0.8,0.2l0-2.4C29.3,38,29.5,37.9,29.8,37.9" class="st15"/><path d="M29,38l0,2.4c-0.2,0-0.3,0.1-0.5,0.1l0-2.4C28.7,38.1,28.8,38.1,29,38" class="st14"/><path d="M28.5,38.1l0,2.4c-0.1,0-0.3,0-0.4,0l0-2.4C28.2,38.1,28.3,38.1,28.5,38.1" class="st13"/><path d="M28.1,38.1l0,2.4c-0.1,0-0.3,0-0.4,0l0-2.4C27.8,38.2,27.9,38.2,28.1,38.1" class="st12"/><path d="M27.6,38.2l0,2.4c-0.1,0-0.3,0-0.4,0l0-2.4C27.4,38.1,27.5,38.1,27.6,38.2" class="st11"/><path d="M27.2,38.1l0,2.4c-0.1,0-0.3,0-0.4,0l0-2.4C27,38.1,27.1,38.1,27.2,38.1" class="st10"/><path d="M26.9,38.1l0,2.4c-0.1,0-0.3,0-0.4-0.1l0-2.4C26.6,38,26.7,38.1,26.9,38.1" class="st9"/><path d="M26.5,38l0,2.4c-0.1,0-0.3-0.1-0.4-0.1l0-2.4C26.2,38,26.3,38,26.5,38" class="st23"/><path d="M26,37.9l0,2.4c-0.2,0-0.3-0.1-0.5-0.2l0-2.4C25.7,37.8,25.9,37.9,26,37.9" class="st24"/><path d="M25.5,37.8l0,2.4c-0.2-0.1-0.4-0.2-0.6-0.3l0-2.4C25.2,37.6,25.3,37.7,25.5,37.8" class="st18"/></g></g></g></g></g></svg>