<svg xmlns="http://www.w3.org/2000/svg" xmlns:xlink="http://www.w3.org/1999/xlink" id="Layer_1" x="0" y="0" version="1.1" viewBox="0 0 55 55" xml:space="preserve" style="enable-background:new 0 0 55 55"><style type="text/css">.st0{fill:#0063ff}.st1,.st2{opacity:.62;fill:url(#SVGID_1_)}.st2{fill:url(#SVGID_2_)}.st7{enable-background:new}.st9{fill:#3d84f1}.st10{fill:#3a82f1}.st11{fill:#3781f2}.st12{fill:#357ff3}.st13{fill:#327ef3}.st14{fill:#2f7cf4}.st15{fill:#2c7af5}.st16{fill:#2979f5}.st17{clip-path:url(#SVGID_8_);enable-background:new}.st18{fill:#4688ef}.st19{fill:#2175f7}.st20{fill:#4487ef}.st21{fill:#146efa}.st22{clip-path:url(#SVGID_10_);enable-background:new}.st23{fill:#4085f0}.st24{fill:#4387ef}.st27{clip-path:url(#SVGID_15_);enable-background:new}.st125{fill:#fff}</style><linearGradient id="SVGID_1_" x1="39.426" x2="39.426" y1="10.083" y2="38.983" gradientUnits="userSpaceOnUse"><stop offset=".08" style="stop-color:#fff"/><stop offset=".158" style="stop-color:#f6f9ff"/><stop offset=".288" style="stop-color:#dceaff"/><stop offset=".454" style="stop-color:#b2d0ff"/><stop offset=".649" style="stop-color:#79adff"/><stop offset=".867" style="stop-color:#3080ff"/><stop offset="1" style="stop-color:#0063ff"/></linearGradient><polygon points="28.2 10.9 28.2 30.3 40.3 35.3 50.6 30.3 50.6 10.9" class="st1"/><linearGradient id="SVGID_2_" x1="11.424" x2="11.424" y1="10.083" y2="38.983" gradientUnits="userSpaceOnUse"><stop offset=".08" style="stop-color:#fff"/><stop offset=".158" style="stop-color:#f6f9ff"/><stop offset=".288" style="stop-color:#dceaff"/><stop offset=".454" style="stop-color:#b2d0ff"/><stop offset=".649" style="stop-color:#79adff"/><stop offset=".867" style="stop-color:#3080ff"/><stop offset="1" style="stop-color:#0063ff"/></linearGradient><polygon points=".2 10.9 .2 30.3 12.3 35.3 22.6 30.3 22.6 10.9" class="st2"/><g><g><g class="st7"><g class="st7"><defs><path id="SVGID_123_" d="M50.7,26.1l0,5.7c0,0.6-0.4,1.2-1.2,1.6l0-5.7C50.3,27.3,50.7,26.7,50.7,26.1z" class="st7"/></defs><clipPath id="SVGID_3_"><use xlink:href="#SVGID_123_" style="overflow:visible"/></clipPath><g style="clip-path:url(#SVGID_3_);enable-background:new"><path d="M50.7,26.1l0,5.7c0,0,0,0,0,0L50.7,26.1C50.7,26.2,50.7,26.2,50.7,26.1" class="st9"/><path d="M50.7,26.2l0,5.7c0,0.1,0,0.2,0,0.2l0-5.7C50.7,26.3,50.7,26.3,50.7,26.2" class="st10"/><path d="M50.7,26.4l0,5.7c0,0.1,0,0.2-0.1,0.2l0-5.7C50.6,26.6,50.6,26.5,50.7,26.4" class="st11"/><path d="M50.6,26.6l0,5.7c0,0.1-0.1,0.2-0.1,0.2l0-5.7C50.5,26.8,50.6,26.7,50.6,26.6" class="st12"/><path d="M50.5,26.9l0,5.7c0,0.1-0.1,0.2-0.2,0.2l0-5.7C50.4,27,50.4,26.9,50.5,26.9" class="st13"/><path d="M50.3,27.1l0,5.7c-0.1,0.1-0.2,0.2-0.2,0.3l0-5.7C50.2,27.3,50.2,27.2,50.3,27.1" class="st14"/><path d="M50.1,27.4l0,5.7c-0.1,0.1-0.3,0.3-0.5,0.4l0-5.7C49.8,27.6,49.9,27.5,50.1,27.4" class="st15"/><path d="M49.6,27.8l0,5.7c0,0,0,0,0,0L49.6,27.8C49.5,27.8,49.5,27.8,49.6,27.8" class="st16"/></g></g><g class="st7"><defs><path id="SVGID_125_" d="M28.2,31.8l0-5.7c0,0.6,0.4,1.2,1.2,1.7l0,5.7C28.6,33,28.2,32.4,28.2,31.8z" class="st7"/></defs><clipPath id="SVGID_4_"><use xlink:href="#SVGID_125_" style="overflow:visible"/></clipPath><g style="clip-path:url(#SVGID_4_);enable-background:new"><path d="M29.4,27.8l0,5.7c-0.8-0.5-1.2-1.1-1.2-1.7l0-5.7C28.2,26.7,28.6,27.3,29.4,27.8" class="st18"/></g></g><g><polygon points="49.5 27.8 49.5 33.5 42.3 37.7 42.3 32" class="st19"/></g><g><polygon points="36.6 32 36.6 37.7 29.4 33.5 29.4 27.8" class="st20"/></g><g><path d="M49.5,24.5c1.6,0.9,1.6,2.4,0,3.3L42.3,32c-1.6,0.9-4.1,0.9-5.7,0l-7.3-4.2c-1.6-0.9-1.6-2.4,0-3.3 l7.2-4.2c1.6-0.9,4.1-0.9,5.7,0L49.5,24.5z" class="st21"/><g class="st7"><defs><path id="SVGID_127_" d="M49.5,24.5c1.6,0.9,1.6,2.4,0,3.3L42.3,32c-1.6,0.9-4.1,0.9-5.7,0l-7.3-4.2 c-1.6-0.9-1.6-2.4,0-3.3l7.2-4.2c1.6-0.9,4.1-0.9,5.7,0L49.5,24.5z" class="st7"/></defs><clipPath id="SVGID_6_"><use xlink:href="#SVGID_127_" style="overflow:visible"/></clipPath><g style="clip-path:url(#SVGID_6_)"><g><g><g><path d="M42.3,27.8c-1.6,0.9-4.2,0.9-5.8,0c-1.6-0.9-1.6-2.4,0-3.3c1.6-0.9,4.2-0.9,5.8,0 C43.9,25.4,43.9,26.9,42.3,27.8 M36.3,24.4c-1.7,1-1.7,2.6,0,3.6c1.7,1,4.5,1,6.3,0c1.7-1,1.7-2.6,0-3.6 C40.8,23.4,38,23.4,36.3,24.4" class="st125"/><path d="M40.4,24.6c0,0-0.1,0.1-0.1,0.1l-0.9,2.6l-2.1-0.2c-0.1,0-0.2,0-0.3,0.1c0,0-0.1,0.1-0.1,0.1 c0,0.1,0.1,0.2,0.3,0.2l2.8,0.3l1-3c0-0.1-0.1-0.2-0.3-0.2C40.6,24.5,40.5,24.5,40.4,24.6" class="st125"/></g></g></g></g></g></g><g class="st7"><defs><path id="SVGID_129_" d="M42.3,32l0,5.7c-1.6,0.9-4.1,0.9-5.7,0l0-5.7C38.2,32.9,40.7,32.9,42.3,32z" class="st7"/></defs><clipPath id="SVGID_8_"><use xlink:href="#SVGID_129_" style="overflow:visible"/></clipPath><g class="st17"><path d="M42.3,32l0,5.7c-0.3,0.2-0.6,0.3-0.9,0.4l0-5.7C41.7,32.3,42,32.1,42.3,32" class="st16"/><path d="M41.4,32.4l0,5.7c-0.2,0.1-0.5,0.1-0.8,0.2l0-5.7C40.9,32.5,41.2,32.4,41.4,32.4" class="st15"/><path d="M40.7,32.5l0,5.7c-0.2,0-0.3,0.1-0.5,0.1l0-5.7C40.3,32.6,40.5,32.6,40.7,32.5" class="st14"/><path d="M40.2,32.6l0,5.7c-0.1,0-0.3,0-0.4,0l0-5.7C39.9,32.6,40,32.6,40.2,32.6" class="st13"/><path d="M39.7,32.6l0,5.7c-0.1,0-0.3,0-0.4,0l0-5.7C39.4,32.7,39.6,32.6,39.7,32.6" class="st12"/><path d="M39.3,32.6l0,5.7c-0.1,0-0.3,0-0.4,0l0-5.7C39,32.6,39.2,32.6,39.3,32.6" class="st11"/><path d="M38.9,32.6l0,5.7c-0.1,0-0.3,0-0.4,0l0-5.7C38.6,32.6,38.8,32.6,38.9,32.6" class="st10"/><path d="M38.5,32.6l0,5.7c-0.1,0-0.3,0-0.4-0.1l0-5.7C38.2,32.5,38.4,32.6,38.5,32.6" class="st9"/><path d="M38.1,32.5l0,5.7c-0.1,0-0.3-0.1-0.4-0.1l0-5.7C37.8,32.4,38,32.5,38.1,32.5" class="st23"/><path d="M37.7,32.4l0,5.7c-0.2,0-0.3-0.1-0.5-0.2l0-5.7C37.4,32.3,37.5,32.4,37.7,32.4" class="st24"/><path d="M37.2,32.2l0,5.7c-0.2-0.1-0.4-0.2-0.6-0.3l0-5.7C36.8,32.1,37,32.2,37.2,32.2" class="st18"/></g></g></g></g></g><g><g><g class="st7"><g class="st7"><defs><path id="SVGID_131_" d="M22.7,26.1l0,5.7c0,0.6-0.4,1.2-1.2,1.6l0-5.7C22.3,27.3,22.7,26.7,22.7,26.1z" class="st7"/></defs><clipPath id="SVGID_10_"><use xlink:href="#SVGID_131_" style="overflow:visible"/></clipPath><g class="st22"><path d="M22.7,26.1l0,5.7c0,0,0,0,0,0L22.7,26.1C22.7,26.2,22.7,26.2,22.7,26.1" class="st9"/><path d="M22.7,26.2l0,5.7c0,0.1,0,0.2,0,0.2l0-5.7C22.7,26.3,22.7,26.3,22.7,26.2" class="st10"/><path d="M22.7,26.4l0,5.7c0,0.1,0,0.2-0.1,0.2l0-5.7C22.6,26.6,22.6,26.5,22.7,26.4" class="st11"/><path d="M22.6,26.6l0,5.7c0,0.1-0.1,0.2-0.1,0.2l0-5.7C22.5,26.8,22.6,26.7,22.6,26.6" class="st12"/><path d="M22.5,26.9l0,5.7c0,0.1-0.1,0.2-0.2,0.2l0-5.7C22.4,27,22.4,26.9,22.5,26.9" class="st13"/><path d="M22.3,27.1l0,5.7c-0.1,0.1-0.2,0.2-0.2,0.3l0-5.7C22.2,27.3,22.2,27.2,22.3,27.1" class="st14"/><path d="M22.1,27.4l0,5.7c-0.1,0.1-0.3,0.3-0.5,0.4l0-5.7C21.8,27.6,21.9,27.5,22.1,27.4" class="st15"/><path d="M21.6,27.8l0,5.7c0,0,0,0,0,0L21.6,27.8C21.5,27.8,21.5,27.8,21.6,27.8" class="st16"/></g></g><g class="st7"><defs><path id="SVGID_133_" d="M0.2,31.8l0-5.7c0,0.6,0.4,1.2,1.2,1.7l0,5.7C0.6,33,0.2,32.4,0.2,31.8z" class="st7"/></defs><clipPath id="SVGID_11_"><use xlink:href="#SVGID_133_" style="overflow:visible"/></clipPath><g style="clip-path:url(#SVGID_11_);enable-background:new"><path d="M1.4,27.8l0,5.7c-0.8-0.5-1.2-1.1-1.2-1.7l0-5.7C0.2,26.7,0.6,27.3,1.4,27.8" class="st18"/></g></g><g><polygon points="21.5 27.8 21.5 33.5 14.3 37.7 14.3 32" class="st19"/></g><g><polygon points="8.6 32 8.6 37.7 1.4 33.5 1.4 27.8" class="st20"/></g><g><path d="M21.5,24.5c1.6,0.9,1.6,2.4,0,3.3L14.3,32c-1.6,0.9-4.1,0.9-5.7,0l-7.3-4.2c-1.6-0.9-1.6-2.4,0-3.3 l7.2-4.2c1.6-0.9,4.1-0.9,5.7,0L21.5,24.5z" class="st21"/><g class="st7"><defs><path id="SVGID_135_" d="M21.5,24.5c1.6,0.9,1.6,2.4,0,3.3L14.3,32c-1.6,0.9-4.1,0.9-5.7,0l-7.3-4.2 c-1.6-0.9-1.6-2.4,0-3.3l7.2-4.2c1.6-0.9,4.1-0.9,5.7,0L21.5,24.5z" class="st7"/></defs><clipPath id="SVGID_13_"><use xlink:href="#SVGID_135_" style="overflow:visible"/></clipPath><g style="clip-path:url(#SVGID_13_)"><g><g><g><path d="M14.3,27.8c-1.6,0.9-4.2,0.9-5.8,0c-1.6-0.9-1.6-2.4,0-3.3c1.6-0.9,4.2-0.9,5.8,0 C15.9,25.4,15.9,26.9,14.3,27.8 M8.3,24.4c-1.7,1-1.7,2.6,0,3.6c1.7,1,4.5,1,6.3,0c1.7-1,1.7-2.6,0-3.6 C12.8,23.4,10,23.4,8.3,24.4" class="st125"/><path d="M12.4,24.6c0,0-0.1,0.1-0.1,0.1l-0.9,2.6l-2.1-0.2c-0.1,0-0.2,0-0.3,0.1c0,0-0.1,0.1-0.1,0.1 c0,0.1,0.1,0.2,0.3,0.2l2.8,0.3l1-3c0-0.1-0.1-0.2-0.3-0.2C12.6,24.5,12.5,24.5,12.4,24.6" class="st125"/></g></g></g></g></g></g><g class="st7"><defs><path id="SVGID_137_" d="M14.3,32l0,5.7c-1.6,0.9-4.1,0.9-5.7,0l0-5.7C10.2,32.9,12.7,32.9,14.3,32z" class="st7"/></defs><clipPath id="SVGID_15_"><use xlink:href="#SVGID_137_" style="overflow:visible"/></clipPath><g class="st27"><path d="M14.3,32l0,5.7c-0.3,0.2-0.6,0.3-0.9,0.4l0-5.7C13.7,32.3,14,32.1,14.3,32" class="st16"/><path d="M13.4,32.4l0,5.7c-0.2,0.1-0.5,0.1-0.8,0.2l0-5.7C12.9,32.5,13.2,32.4,13.4,32.4" class="st15"/><path d="M12.7,32.5l0,5.7c-0.2,0-0.3,0.1-0.5,0.1l0-5.7C12.3,32.6,12.5,32.6,12.7,32.5" class="st14"/><path d="M12.2,32.6l0,5.7c-0.1,0-0.3,0-0.4,0l0-5.7C11.9,32.6,12,32.6,12.2,32.6" class="st13"/><path d="M11.7,32.6l0,5.7c-0.1,0-0.3,0-0.4,0l0-5.7C11.4,32.7,11.6,32.6,11.7,32.6" class="st12"/><path d="M11.3,32.6l0,5.7c-0.1,0-0.3,0-0.4,0l0-5.7C11,32.6,11.2,32.6,11.3,32.6" class="st11"/><path d="M10.9,32.6l0,5.7c-0.1,0-0.3,0-0.4,0l0-5.7C10.6,32.6,10.8,32.6,10.9,32.6" class="st10"/><path d="M10.5,32.6l0,5.7c-0.1,0-0.3,0-0.4-0.1l0-5.7C10.2,32.5,10.4,32.6,10.5,32.6" class="st9"/><path d="M10.1,32.5l0,5.7c-0.1,0-0.3-0.1-0.4-0.1l0-5.7C9.8,32.4,10,32.5,10.1,32.5" class="st23"/><path d="M9.7,32.4l0,5.7c-0.2,0-0.3-0.1-0.5-0.2l0-5.7C9.4,32.3,9.5,32.4,9.7,32.4" class="st24"/><path d="M9.2,32.2l0,5.7c-0.2-0.1-0.4-0.2-0.6-0.3l0-5.7C8.8,32.1,9,32.2,9.2,32.2" class="st18"/></g></g></g></g></g><g><path d="M24,38.8c0.1-0.1,0.2-0.3,0-0.5c-0.4-0.4-0.5-0.9-0.5-1.5c0-1.3,1-2.3,2.3-2.3s2.3,1,2.3,2.3 c0,0.5-0.2,1.1-0.5,1.5c-0.1,0.1-0.1,0.4,0,0.5c0.1,0.1,0.1,0.1,0.2,0.1c0.1,0,0.2,0,0.3-0.1c0.5-0.5,0.7-1.2,0.7-1.9 c0-1.6-1.3-3-3-3s-3,1.3-3,3c0,0.7,0.3,1.4,0.7,1.9C23.6,38.9,23.8,38.9,24,38.8z" class="st0"/><path d="M25.8,36.2c0.7,0,1.3,0.5,1.5,1.1c0-0.1,0.1-0.3,0.1-0.5c0-0.9-0.7-1.6-1.6-1.6c-0.9,0-1.6,0.7-1.6,1.6 c0,0.1,0,0.3,0.1,0.4C24.4,36.6,25,36.2,25.8,36.2z" class="st0"/><path d="M32.2,43.4c-0.2-1.3-1.1-1.5-1.5-1.5c-0.1,0-0.3-0.1-0.3-0.2c-0.3-0.5-0.7-0.6-1.1-0.6c-0.2,0-0.5,0.1-0.6,0.1 c0,0,0,0,0,0c0,0-0.1,0-0.1-0.1c-0.3-0.5-0.7-0.7-1.1-0.7c-0.2,0-0.4,0-0.5,0.1c0,0,0,0-0.1,0c-0.1,0-0.1-0.1-0.1-0.1v-2.7 c0-0.6-0.5-0.9-0.9-0.9s-0.9,0.3-0.9,0.9v4.8c0,0.3-0.2,0.5-0.4,0.5c-0.1,0-0.3-0.1-0.4-0.2l-0.4-0.7c-0.2-0.3-0.5-0.5-0.8-0.5 c-0.6,0-1.3,0.7-0.8,1.4l3.5,6.7c0,0,0.1,0.1,0.1,0.1h4.9c0.1,0,0.1-0.1,0.1-0.1l0.1-2c0,0,0,0,0-0.1C32,45.8,32.4,44.6,32.2,43.4z" class="st0"/></g></svg>