<svg xmlns="http://www.w3.org/2000/svg" xmlns:xlink="http://www.w3.org/1999/xlink" id="Layer_1" x="0" y="0" version="1.1" viewBox="0 0 45 45" xml:space="preserve" style="enable-background:new 0 0 45 45"><style type="text/css">.st0{fill:#0063ff}.st125{fill:#fff}.st158{fill:#1be0e6}.st2745{fill:#c7dbf9}</style><polygon points="9.3 34.3 22.4 24.9 35.9 34.4 22.4 40.6" class="st2745"/><path d="M42.1,34.5c1.1,0.8,1.4,2.4,0.6,3.5c-0.8,1.1-2.4,1.4-3.5,0.6c-1.1-0.8-1.4-2.4-0.6-3.5c0,0,0,0,0,0	C39.4,33.9,41,33.7,42.1,34.5z" class="st158"/><path d="M34.5,17.7v14.4l-12.1,5.6V23.3L34.5,17.7z" class="st125"/><path d="M22.4,12.1L22.4,12.1l12.1,5.5l-12.1,5.6l-12.1-5.6L22.4,12.1z" class="st158"/><path d="M22.4,7.2C21,7.1,20,6,20,4.6c0.1-1.4,1.2-2.4,2.6-2.4C24,2.3,25,3.4,25,4.8S23.8,7.2,22.4,7.2	C22.5,7.2,22.4,7.2,22.4,7.2z" class="st158"/><path d="M10.4,32.1L10.4,32.1l-0.1-14.4l12.1,5.6v14.4L10.4,32.1z" class="st125"/><path d="M6.5,35c0.8,1.1,0.5,2.7-0.6,3.5c-1.1,0.8-2.7,0.5-3.5-0.6c-0.8-1.1-0.6-2.7,0.5-3.5	C4.1,33.7,5.6,33.9,6.5,35C6.4,35,6.5,35,6.5,35z" class="st158"/><path d="M42.5,33.9c-1.2-0.9-2.9-0.8-4,0.2l-3.3-2.4v-14c0-0.3-0.1-0.5-0.4-0.6l-11.7-5.4V7.9c1.6-0.3,2.7-1.8,2.6-3.4	c-0.1-1.6-1.5-2.9-3.1-3c-1.6,0-3.1,1.2-3.3,2.8s0.8,3.2,2.4,3.6v3.9L10.1,17c-0.3,0.1-0.4,0.4-0.4,0.6v14.1l-3.1,2.3	c-1-0.9-2.5-1-3.7-0.3c-1.2,0.7-1.8,2-1.6,3.4c0.2,1.3,1.3,2.4,2.7,2.6c0.2,0,0.3,0,0.5,0c1.1,0,2.1-0.6,2.7-1.5	c0.6-0.9,0.7-2.1,0.2-3.1l3.2-2.3l11.6,5.3c0.2,0.1,0.4,0.1,0.6,0l11.7-5.4l3.2,2.3c-0.4,1-0.4,2.2,0.2,3.1c0.6,0.9,1.6,1.5,2.7,1.5	c0.2,0,0.3,0,0.5,0c1.3-0.2,2.3-1.2,2.6-2.4C44,36,43.6,34.7,42.5,33.9L42.5,33.9z M22.4,22.5L12,17.7l10.4-4.8l10.4,4.8L22.4,22.5z M20.7,4.7c0-1,0.8-1.8,1.8-1.8c1,0,1.8,0.8,1.8,1.8c0,1-0.8,1.8-1.8,1.8c0,0,0,0,0,0c0,0,0,0,0,0C21.4,6.5,20.7,5.7,20.7,4.7z M6.2,36.8c-0.1,0.5-0.3,0.9-0.7,1.2c-0.8,0.6-1.9,0.4-2.5-0.4c-0.6-0.8-0.4-1.9,0.4-2.5c0.8-0.6,1.9-0.4,2.5,0.3c0,0,0,0,0,0l0,0	C6.2,35.8,6.3,36.3,6.2,36.8z M11,18.8l10.6,4.9v12.8L11,31.6V18.8z M23.1,36.5V23.7l10.6-4.9v12.9L23.1,36.5z M42.1,37.6	c-0.3,0.4-0.7,0.7-1.2,0.7c-0.5,0.1-1,0-1.4-0.3c-0.4-0.4-0.7-0.7-0.7-1.2c-0.1-0.5,0-1,0.3-1.4c0,0,0,0,0,0c0,0,0,0,0,0	c0.6-0.8,1.7-1,2.5-0.4C42.5,35.7,42.7,36.8,42.1,37.6L42.1,37.6z" class="st0"/></svg>