<svg xmlns="http://www.w3.org/2000/svg" xmlns:xlink="http://www.w3.org/1999/xlink" id="Layer_1" x="0" y="0" version="1.1" viewBox="0 0 45 45" xml:space="preserve" style="enable-background:new 0 0 45 45"><style type="text/css">.st0{fill:#0063ff}.st125{fill:#fff}.st158{fill:#1be0e6}.st2745{fill:#c7dbf9}.st2746{fill:#66acd7}</style><path d="M21.7,1.6h-4.3c-2.4,0-4.3,1.9-4.3,4.3h4.3C19.8,5.9,21.7,4,21.7,1.6z" class="st158"/><path d="M4.6,1.6h4.3c2.4,0,4.3,1.9,4.3,4.3H8.9C6.5,5.9,4.6,4,4.6,1.6z" class="st158"/><path d="M7.5,15.9c0-0.8,0.6-1.4,1.4-1.4h8.5c0.8,0,1.4,0.6,1.4,1.4c0,0.8-0.6,1.4-1.4,1.4v5.1	c4.3,1.7,7.2,5.9,7.1,10.9c-0.2,5.9-4.9,10.8-10.8,11C7.2,44.6,1.8,39.4,1.8,32.9c0-4.8,2.9-8.8,7.1-10.5v-5.1	C8.1,17.3,7.5,16.6,7.5,15.9z" class="st2745"/><path d="M16,20.5c0-2.1-0.3-4.2-0.9-6H8.9c-0.8,0-1.4,0.6-1.4,1.4c0,0.8,0.6,1.4,1.4,1.4v5.1	c-4.2,1.7-7.1,5.8-7.1,10.5c0,1.2,0.2,2.4,0.5,3.5c0.4,0.1,0.8,0.1,1.2,0.1C10.4,36.5,16,29.3,16,20.5z" class="st125"/><path d="M13.7,44.3c5.9-0.3,10.7-5.2,10.8-11c0-0.1,0-0.2,0-0.3h-0.8c-0.4,0-0.7-0.1-1-0.4l-0.6-0.6	c-0.3-0.3-0.6-0.4-1-0.4h-0.2c-0.4,0-0.7,0.1-1,0.4l-0.6,0.6c-0.3,0.3-0.6,0.4-1,0.4H18c-0.4,0-0.7-0.1-1-0.4l-0.6-0.6	c-0.3-0.3-0.6-0.4-1-0.4h-0.2c-0.4,0-0.7,0.1-1,0.4l-0.6,0.6c-0.3,0.3-0.6,0.4-1,0.4h-0.2c-0.4,0-0.7-0.1-1-0.4l-0.6-0.6	c-0.3-0.3-0.6-0.4-1-0.4H9.5c-0.4,0-0.7,0.1-1,0.4l-0.6,0.6c-0.3,0.3-0.6,0.4-1,0.4H6.6c-0.4,0-0.7-0.1-1-0.4L5,31.9	c-0.3-0.3-0.6-0.4-1-0.4H3.8c-0.4,0-0.7,0.1-1,0.4l-1,1C1.8,39.4,7.2,44.6,13.7,44.3z" class="st158"/><g><path d="M16,40c0,0.8-0.6,1.4-1.4,1.4c-0.8,0-1.4-0.6-1.4-1.4s0.6-1.4,1.4-1.4C15.4,38.6,16,39.2,16,40z" class="st2746"/><path d="M21,35c0,1.2-1,2.1-2.1,2.1c-1.2,0-2.1-1-2.1-2.1c0-1.2,1-2.1,2.1-2.1C20,32.9,21,33.9,21,35z" class="st2746"/><path d="M10.3,37.2c0,1.2-1,2.1-2.1,2.1S6,38.4,6,37.2S7,35,8.2,35S10.3,36,10.3,37.2z" class="st2746"/></g><path d="M13.1,45c-3.1,0-6.1-1.2-8.3-3.3c-2.4-2.3-3.7-5.4-3.7-8.7c0-4.8,2.8-9.1,7.1-11v-4c-0.8-0.3-1.4-1.1-1.4-2	c0-1.2,1-2.1,2.1-2.1h8.5c1.2,0,2.1,1,2.1,2.1c0,0.9-0.6,1.7-1.4,2v4c4.4,2,7.2,6.5,7.1,11.3C25.1,39.5,20,44.7,13.7,45	C13.5,45,13.3,45,13.1,45z M8.9,15.1c-0.4,0-0.7,0.3-0.7,0.7c0,0.4,0.3,0.7,0.7,0.7c0.4,0,0.7,0.3,0.7,0.7v5.1	c0,0.3-0.2,0.6-0.4,0.7c-4,1.6-6.7,5.5-6.7,9.9c0,2.9,1.2,5.7,3.3,7.7c2.1,2,4.9,3.1,7.9,2.9c5.5-0.3,10-4.8,10.1-10.4	c0.1-4.4-2.6-8.5-6.7-10.2c-0.3-0.1-0.4-0.4-0.4-0.7v-5.1c0-0.4,0.3-0.7,0.7-0.7c0.4,0,0.7-0.3,0.7-0.7c0-0.4-0.3-0.7-0.7-0.7H8.9z" class="st0"/><path d="M24.5,33.6h-0.8c-0.6,0-1.1-0.2-1.5-0.6l-0.6-0.6c-0.1-0.1-0.3-0.2-0.5-0.2h-0.2c-0.2,0-0.4,0.1-0.5,0.2	L19.8,33c-0.4,0.4-0.9,0.6-1.5,0.6H18c-0.6,0-1.1-0.2-1.5-0.6l-0.6-0.6c-0.1-0.1-0.3-0.2-0.5-0.2h-0.2c-0.2,0-0.4,0.1-0.5,0.2	L14.1,33c-0.4,0.4-0.9,0.6-1.5,0.6h-0.2c-0.6,0-1.1-0.2-1.5-0.6l-0.6-0.6c-0.1-0.1-0.3-0.2-0.5-0.2H9.5c-0.2,0-0.4,0.1-0.5,0.2	L8.4,33c-0.4,0.4-0.9,0.6-1.5,0.6H6.6c-0.6,0-1.1-0.2-1.5-0.6l-0.6-0.6c-0.1-0.1-0.3-0.2-0.5-0.2H3.8c-0.2,0-0.4,0.1-0.5,0.2l-1,1	l-1-1l1-1c0.4-0.4,0.9-0.6,1.5-0.6H4c0.6,0,1.1,0.2,1.5,0.6L6.1,32c0.1,0.1,0.3,0.2,0.5,0.2h0.2c0.2,0,0.4-0.1,0.5-0.2L8,31.4	c0.4-0.4,0.9-0.6,1.5-0.6h0.2c0.6,0,1.1,0.2,1.5,0.6l0.6,0.6c0.1,0.1,0.3,0.2,0.5,0.2h0.2c0.2,0,0.4-0.1,0.5-0.2l0.6-0.6	c0.4-0.4,0.9-0.6,1.5-0.6h0.2c0.6,0,1.1,0.2,1.5,0.6l0.6,0.6c0.1,0.1,0.3,0.2,0.5,0.2h0.2c0.2,0,0.4-0.1,0.5-0.2l0.6-0.6	c0.4-0.4,0.9-0.6,1.5-0.6h0.2c0.6,0,1.1,0.2,1.5,0.6l0.6,0.6c0.1,0.1,0.3,0.2,0.5,0.2h0.8V33.6z" class="st0"/><path d="M12.4,5.9h1.4v24.2h-1.4V5.9z" class="st0"/><path d="M14.6,42.2c-1.2,0-2.1-1-2.1-2.1c0-1.2,1-2.1,2.1-2.1s2.1,1,2.1,2.1C16.7,41.2,15.7,42.2,14.6,42.2z M14.6,39.3	c-0.4,0-0.7,0.3-0.7,0.7c0,0.4,0.3,0.7,0.7,0.7c0.4,0,0.7-0.3,0.7-0.7C15.3,39.6,15,39.3,14.6,39.3z" class="st0"/><path d="M18.8,37.9c-1.6,0-2.8-1.3-2.8-2.8c0-1.6,1.3-2.8,2.8-2.8c1.6,0,2.8,1.3,2.8,2.8C21.7,36.6,20.4,37.9,18.8,37.9	z M18.8,33.6c-0.8,0-1.4,0.6-1.4,1.4s0.6,1.4,1.4,1.4c0.8,0,1.4-0.6,1.4-1.4S19.6,33.6,18.8,33.6z" class="st0"/><path d="M8.2,40c-1.6,0-2.8-1.3-2.8-2.8s1.3-2.8,2.8-2.8s2.8,1.3,2.8,2.8S9.7,40,8.2,40z M8.2,35.8	c-0.8,0-1.4,0.6-1.4,1.4s0.6,1.4,1.4,1.4c0.8,0,1.4-0.6,1.4-1.4S9,35.8,8.2,35.8z" class="st0"/><path d="M17.4,6.6h-4.3c-0.4,0-0.7-0.3-0.7-0.7c0-2.7,2.2-5,5-5h4.3c0.4,0,0.7,0.3,0.7,0.7C22.4,4.4,20.2,6.6,17.4,6.6z M13.9,5.2h3.5c1.7,0,3.2-1.2,3.5-2.8h-3.5C15.7,2.4,14.3,3.6,13.9,5.2z" class="st0"/><path d="M13.1,6.6H8.9c-2.7,0-5-2.2-5-5c0-0.4,0.3-0.7,0.7-0.7h4.3c2.7,0,5,2.2,5,5C13.9,6.3,13.5,6.6,13.1,6.6z M5.4,2.4C5.7,4,7.2,5.2,8.9,5.2h3.5C12,3.6,10.6,2.4,8.9,2.4H5.4z" class="st0"/></svg>