<svg xmlns="http://www.w3.org/2000/svg" xmlns:xlink="http://www.w3.org/1999/xlink" id="Layer_1" x="0" y="0" version="1.1" viewBox="0 0 45 45" xml:space="preserve" style="enable-background:new 0 0 45 45"><style type="text/css">.st7{enable-background:new}.st125{fill:#fff}.st2749{fill:#336ee5}.st2750{fill:none;stroke:#0063ff;stroke-width:2;stroke-linecap:round;stroke-miterlimit:10}.st2751{fill:#1776fe}.st2752{fill:#2e89fc}.st2753{fill:#b7ddfc}.st2754{fill:#eaf5fe}.st2755{fill:#dceefe}.st2756{fill:#0e6efe}.st2757{fill:#3dcdef}.st2758{fill:#2cd6ea}.st2759{fill:#25dae9}</style><path d="M22.5,38.3c-11.8,0-21.3-5.1-21.3-11.5s9.5-11.5,21.3-11.5s21.3,5.1,21.3,11.5c0,4.1-4.1,7.8-10.2,9.8" class="st2750"/><g><g><g class="st7"><g><polygon points="21 17.2 21 18 10.3 24.2 10.3 23.4" class="st2751"/></g><g><polygon points="34.6 25 34.6 25.8 21 18 21 17.2" class="st2752"/></g><g><polygon points="23.9 31.3 23.9 32.1 10.3 24.2 10.3 23.4" class="st2753"/></g><g><polygon points="34.6 25 23.9 31.3 10.3 23.4 21 17.2" class="st2754"/></g><g><polygon points="34.6 25 34.6 25.8 23.9 32.1 23.9 31.3" class="st2755"/></g><g><polygon points="23.9 32.9 23.9 33.7 7.4 24.2 7.4 23.4" class="st2752"/></g><g><polygon points="37.4 25 37.4 25.8 23.9 33.7 23.9 32.9" class="st2751"/></g><g><path d="M21,15.5L37.4,25l-13.6,7.9L7.4,23.4L21,15.5z M23.9,31.3L34.6,25L21,17.2l-10.7,6.2L23.9,31.3" class="st2756"/></g></g></g></g><g><g><g class="st7"><g><polygon points="21 12 21 12.9 10.3 19.1 10.3 18.3" class="st2751"/></g><g><polygon points="34.6 19.9 34.6 20.7 21 12.9 21 12" class="st2752"/></g><g><polygon points="23.9 26.1 23.9 26.9 10.3 19.1 10.3 18.3" class="st2753"/></g><g><polygon points="34.6 19.9 34.6 20.7 23.9 26.9 23.9 26.1" class="st2755"/></g><g><path d="M21,10.4l16.4,9.5l-13.5,7.9L7.4,18.3L21,10.4z M23.9,26.1l10.7-6.2L21,12l-10.7,6.2L23.9,26.1" class="st2756"/></g><g><polygon points="34.6 19.9 23.9 26.1 10.3 18.3 21 12" class="st2754"/></g><g><polygon points="23.9 27.8 23.9 28.6 7.4 19.1 7.4 18.3" class="st2752"/></g><g><polygon points="37.4 19.9 37.4 20.7 23.9 28.6 23.9 27.8" class="st2751"/></g></g></g></g><g><g><g class="st7"><g><polygon points="21 6.9 21 7.7 10.3 13.9 10.3 13.1" class="st2751"/></g><g><polygon points="34.6 14.7 34.6 15.5 21 7.7 21 6.9" class="st2752"/></g><g><polygon points="23.9 20.9 23.9 21.8 10.3 13.9 10.3 13.1" class="st2757"/></g><g><polygon points="34.6 14.7 34.6 15.5 23.9 21.8 23.9 20.9" class="st2758"/></g><g><path d="M21,5.2l16.4,9.5l-13.6,7.9L7.4,13.1L21,5.2z M23.9,20.9l10.7-6.2L21,6.9l-10.7,6.2L23.9,20.9" class="st2756"/></g><g><polygon points="34.6 14.7 23.9 20.9 10.3 13.1 21 6.9" class="st2759"/><g class="st7"><defs><polygon id="SVGID_4765_" points="34.6 14.7 23.9 20.9 10.3 13.1 21 6.9" class="st7"/></defs><clipPath id="SVGID_1_"><use xlink:href="#SVGID_4765_" style="overflow:visible"/></clipPath><g style="clip-path:url(#SVGID_1_)"><g><g><g><path d="M26.1,11.8C26.1,11.8,26.1,11.8,26.1,11.8C26.2,11.8,26.2,11.9,26.1,11.8c0.1,0.2,0.1,0.2,0,0.3 c0,0,0,0,0,0c-0.1,0-0.1,0.1-0.2,0.1c-0.2,0.1-0.3,0.1-0.4,0.2l-0.1,0.1l-0.1,0.1l0,0c0.2,0.1,0.3,0.3,0.4,0.4 c0.3,0.3,0.4,0.7,0.4,1l0,0l0.1,0l0.1,0l0.2,0.1c0.2,0,0.3,0,0.5,0c0.1,0,0.2,0,0.3,0c0.1,0,0.1,0,0.2,0.1c0,0,0,0,0,0 c0,0,0,0,0,0c0.1,0.1,0.1,0.2,0,0.2c0,0,0,0,0,0l-0.2,0c-0.1,0-0.2,0-0.3,0c-0.2,0-0.3-0.1-0.5-0.1l-0.1,0l-0.1,0l-0.1,0 l-0.1,0c-0.1,0.2-0.2,0.4-0.4,0.6c-0.2,0.2-0.4,0.4-0.7,0.6c0,0-0.1,0-0.1,0.1l-0.2,0.1l0,0l0,0.1l0,0.1 c0.1,0.1,0.2,0.1,0.2,0.2c0.1,0.1,0.2,0.1,0.2,0.2l0.1,0.1c0,0.1,0,0.1-0.1,0.2c0,0-0.1,0-0.1,0c0,0-0.1,0-0.1,0 c-0.1,0-0.2,0-0.2-0.1c0,0,0,0,0,0c-0.1,0-0.1-0.1-0.1-0.1c-0.1-0.1-0.2-0.2-0.3-0.3c0,0,0,0-0.1-0.1c0,0-0.1,0-0.1,0 c0,0,0,0,0,0l-0.1,0L24,16c-0.2,0-0.3,0.1-0.5,0.1c-0.7,0.1-1.4,0.2-2.1,0.1l-0.1,0l-0.1,0l-0.1,0.1l-0.1,0.1 c-0.1,0.1-0.1,0.2-0.2,0.3l0,0.1l-0.1,0.1c-0.1,0.1-0.2,0.1-0.3,0c0,0-0.1,0-0.1,0c0,0,0,0,0,0c-0.1,0-0.1-0.1-0.1-0.1 c0-0.1,0.1-0.1,0.1-0.2c0.1-0.1,0.2-0.2,0.2-0.2l0-0.1c0-0.1,0-0.1,0-0.1l0-0.1l0,0c-0.2-0.1-0.4-0.1-0.6-0.2 c-0.2-0.1-0.3-0.1-0.5-0.2c-0.1,0-0.2-0.1-0.2-0.2c-0.2-0.2-0.4-0.3-0.6-0.5l-0.1,0h-0.2l-0.2,0c-0.2,0-0.4,0.1-0.5,0.1 c-0.1,0-0.2,0.1-0.3,0.1l-0.2,0c0,0,0,0,0,0c0,0-0.1,0-0.1,0c-0.1,0-0.1-0.1-0.1-0.2c0,0,0-0.1,0.1-0.1l0.2-0.1l0.2,0 c0.2,0,0.4,0,0.6-0.1l0.1-0.1l0.1,0l0.1-0.1c-0.1-0.2-0.1-0.4-0.1-0.6c0-0.3,0.1-0.6,0.4-0.9l0,0l0,0l-0.1-0.1l-0.1-0.1 c-0.2-0.1-0.3-0.1-0.5-0.2l-0.2-0.1l-0.1-0.1c-0.1-0.1-0.1-0.1,0-0.2c0,0,0,0,0,0c0.1,0,0.2-0.1,0.3,0c0.1,0,0.2,0,0.3,0.1 c0.2,0.1,0.3,0.2,0.5,0.2l0.2,0l0.1,0l0.1,0c0.1-0.1,0.2-0.2,0.3-0.2c0.5-0.3,1.1-0.5,1.9-0.6l0.1,0l0,0l0.1-0.1l0-0.1 c0-0.1-0.1-0.2-0.1-0.3l-0.1-0.2c0-0.1,0-0.1,0.1-0.1c0,0,0,0,0,0c0.1-0.1,0.3-0.1,0.4,0c0,0,0,0,0,0c0,0,0,0,0,0l0.1,0.1 c0,0.1,0,0.2,0,0.2c0,0.1,0,0.2,0,0.2l0.1,0.1l0,0l0.1,0c0.4,0,0.8,0,1.1,0.1c0.5,0.1,0.9,0.2,1.3,0.4l0.1,0h0.1l0.1,0 l0.1,0l0.1-0.1c0.1-0.1,0.2-0.2,0.4-0.3c0,0,0.1,0,0.1-0.1c0,0,0.1,0,0.1,0C25.9,11.7,26,11.7,26.1,11.8 M27.4,11 c0,0-0.1-0.1-0.2-0.1c-0.1,0-0.2-0.1-0.3-0.1c-1.7-0.4-3.4-0.7-5.1-1.1c-0.3-0.1-0.6,0-0.9,0.1c-0.6,0.2-1.3,0.5-1.9,0.7 c-0.9,0.3-1.8,0.7-2.7,1c-0.2,0.1-0.3,0.1-0.4,0.2c-0.1,0.1-0.1,0.2-0.1,0.3c-0.2,0.9-0.3,1.9-0.5,2.8c0,0.1,0,0.2-0.1,0.3 c0,0.2,0.1,0.3,0.3,0.5c0.7,0.4,1.3,0.8,2,1.1c0.6,0.3,1.2,0.7,1.8,1c0.1,0,0.2,0.1,0.2,0.1c0.2,0.1,0.5,0.2,0.8,0.1 c0.2,0,0.5,0,0.7,0c1.4-0.1,2.9-0.2,4.3-0.3c0.2,0,0.4,0,0.6,0c0.3,0,0.5-0.1,0.6-0.2c0.1-0.1,0.2-0.2,0.3-0.3 c0.6-0.5,1.2-1.1,1.8-1.6c0.3-0.3,0.6-0.6,0.9-0.8c0.1-0.1,0.1-0.2,0.1-0.3c0-0.1,0-0.2-0.1-0.3c-0.5-0.7-0.9-1.5-1.4-2.2 c-0.2-0.3-0.3-0.5-0.5-0.8C27.6,11.2,27.5,11.1,27.4,11" class="st2749"/><path d="M19.5,14.8c0.5-0.1,1-0.2,1.4-0.2c0.1,0,0.2,0,0.3,0c0.1,0,0.1,0.1,0.1,0.1 c-0.1,0.1-0.1,0.3-0.2,0.4c-0.1,0.1-0.1,0.3-0.2,0.4l0,0l-0.2-0.1c0,0-0.1,0-0.1,0c-0.1-0.1-0.3-0.1-0.4-0.2c0,0,0,0-0.1,0 C19.8,15.2,19.6,15,19.5,14.8L19.5,14.8L19.5,14.8 M20.7,13.8C20.8,13.8,20.8,13.9,20.7,13.8c0.1,0.1,0,0.2,0,0.2 c0,0,0,0,0,0l-0.1,0c-0.4,0.1-0.9,0.2-1.3,0.3l-0.1,0l-0.1-0.1c-0.1-0.3,0-0.6,0.2-1l0,0l0.1,0 C19.9,13.4,20.3,13.6,20.7,13.8C20.7,13.8,20.7,13.8,20.7,13.8 M22.3,14.9c0,0,0.1,0,0.2,0l0.2,0.1 c0.3,0.2,0.6,0.5,0.9,0.7l0,0c-0.2,0.1-0.5,0.1-0.8,0.1c-0.4,0-0.7,0-1.1,0l-0.1,0l0,0c0.1-0.1,0.1-0.2,0.2-0.3 C21.9,15.3,22.1,15.1,22.3,14.9C22.2,14.9,22.2,14.9,22.3,14.9 M22.7,13.8c0.1,0,0.1,0.1,0.1,0.1c0,0,0,0,0,0l0,0.1l-0.1,0 c-0.1,0-0.2,0.1-0.3,0.1l-0.1,0c-0.1,0-0.2-0.1-0.4-0.1l-0.1,0c0-0.1-0.1-0.1-0.1-0.2l0,0c0.1-0.1,0.1-0.1,0.2-0.2l0.1,0 c0.1,0,0.3,0,0.4,0l0.1,0L22.7,13.8L22.7,13.8C22.7,13.8,22.7,13.8,22.7,13.8 M20,12.7c0.4-0.3,0.9-0.4,1.5-0.5l0,0 c0,0.3,0.1,0.6,0.1,0.9c0,0.1,0,0.1-0.1,0.1c0,0-0.1,0-0.1,0l-0.2,0c-0.1,0-0.2-0.1-0.3-0.1c-0.3-0.1-0.7-0.2-1-0.3l-0.1,0 C19.9,12.8,19.9,12.8,20,12.7 M23.5,14.4c0,0,0.1,0,0.2,0l0.2,0c0.4,0,0.9,0,1.3,0l0.1,0c-0.1,0.1-0.1,0.2-0.2,0.4 c-0.2,0.2-0.4,0.4-0.6,0.5c0,0-0.1,0-0.1,0.1l0,0c0,0,0,0,0,0c0,0,0,0,0,0c0,0,0,0,0,0c-0.2-0.2-0.5-0.5-0.7-0.7l0-0.1 C23.4,14.5,23.4,14.5,23.5,14.4 M24.6,12.9l0.1,0c0.1,0.1,0.2,0.2,0.3,0.3c0.2,0.2,0.3,0.4,0.3,0.7l0,0l0,0 c-0.2,0-0.3,0-0.4,0c-0.4,0-0.7-0.1-1.1-0.1c0,0-0.1,0-0.1,0c0,0-0.1,0-0.1,0c0,0-0.1,0-0.1-0.1c0-0.1,0-0.1,0.1-0.1 c0.1,0,0.1-0.1,0.2-0.1C24.1,13.3,24.4,13.1,24.6,12.9L24.6,12.9 M22.3,12.2c0.7,0,1.3,0.1,1.9,0.4L24,12.7 c-0.2,0.1-0.4,0.2-0.6,0.3c-0.1,0.1-0.3,0.2-0.4,0.2c-0.1,0-0.1,0-0.2,0c0,0-0.1,0-0.1,0c0,0,0,0-0.1-0.1l0-0.1 C22.4,12.8,22.4,12.5,22.3,12.2L22.3,12.2 M26.1,11.8c-0.1-0.1-0.2-0.1-0.4,0c0,0-0.1,0-0.1,0c0,0-0.1,0-0.1,0.1 c-0.1,0.1-0.2,0.2-0.4,0.3l-0.1,0.1l-0.1,0l-0.1,0h-0.1l-0.1,0c-0.4-0.2-0.8-0.3-1.3-0.4c-0.4-0.1-0.8-0.1-1.1-0.1l-0.1,0 l0,0L22,11.5c0-0.1,0-0.1,0-0.2c0-0.1,0-0.2,0-0.2L21.9,11c0,0,0,0,0,0c0,0,0,0,0,0c-0.1-0.1-0.3-0.1-0.4,0c0,0,0,0,0,0 c-0.1,0-0.1,0.1-0.1,0.1l0.1,0.2c0.1,0.1,0.1,0.2,0.1,0.3l0,0.1l-0.1,0.1l0,0l-0.1,0c-0.7,0.1-1.4,0.3-1.9,0.6 c-0.1,0.1-0.2,0.1-0.3,0.2l-0.1,0l-0.1,0l-0.2,0c-0.2-0.1-0.4-0.2-0.5-0.2c-0.1,0-0.2-0.1-0.3-0.1c-0.1,0-0.2,0-0.3,0 c0,0,0,0,0,0c-0.1,0.1-0.1,0.1,0,0.2l0.1,0.1l0.2,0.1c0.2,0,0.4,0.1,0.5,0.2l0.1,0.1l0.1,0.1l0,0l0,0 c-0.2,0.3-0.4,0.6-0.4,0.9c0,0.2,0,0.4,0.1,0.6l-0.1,0.1l-0.1,0l-0.1,0.1c-0.2,0-0.4,0.1-0.6,0.1l-0.2,0l-0.2,0.1 c0,0-0.1,0-0.1,0.1c0,0.1,0,0.1,0.1,0.2c0,0,0,0,0.1,0c0,0,0,0,0,0l0.2,0c0.1,0,0.2,0,0.3-0.1c0.2-0.1,0.3-0.1,0.5-0.1 l0.2,0h0.2l0.1,0c0.1,0.2,0.3,0.3,0.6,0.5c0.1,0.1,0.2,0.1,0.2,0.2c0.1,0.1,0.3,0.2,0.5,0.2c0.2,0.1,0.4,0.2,0.6,0.2l0,0 l0,0.1c0,0,0,0.1,0,0.1l0,0.1c-0.1,0.1-0.1,0.2-0.2,0.2c-0.1,0.1-0.1,0.1-0.1,0.2c0,0.1,0,0.1,0.1,0.1c0,0,0,0,0,0 c0,0,0,0,0.1,0c0.1,0,0.2,0,0.3,0l0.1-0.1l0-0.1c0-0.1,0.1-0.2,0.2-0.3l0.1-0.1l0.1-0.1l0.1,0l0.1,0 c0.7,0.1,1.4,0.1,2.1-0.1c0.2,0,0.3-0.1,0.5-0.1l0.1,0l0.1,0c0,0,0,0,0,0c0,0,0.1,0,0.1,0c0,0,0,0,0.1,0.1 c0.1,0.1,0.2,0.2,0.3,0.3c0,0,0.1,0.1,0.1,0.1c0,0,0,0,0,0c0.1,0,0.1,0.1,0.2,0.1c0,0,0.1,0,0.1,0c0,0,0.1,0,0.1,0 c0.1,0,0.1-0.1,0.1-0.2l-0.1-0.1c-0.1-0.1-0.2-0.1-0.2-0.2c-0.1-0.1-0.2-0.1-0.2-0.2l0-0.1l0-0.1l0,0l0.2-0.1 c0,0,0.1,0,0.1-0.1c0.3-0.2,0.5-0.4,0.7-0.6c0.2-0.2,0.3-0.4,0.4-0.6l0.1,0l0.1,0l0.1,0l0.1,0c0.2,0,0.3,0,0.5,0.1 c0.1,0,0.2,0,0.3,0l0.2,0c0,0,0,0,0,0c0.1-0.1,0.1-0.1,0-0.2c0,0,0,0,0,0c0,0,0,0,0,0c-0.1,0-0.1,0-0.2-0.1 c-0.1,0-0.2,0-0.3,0c-0.2,0-0.3,0-0.5,0l-0.2-0.1l-0.1,0l-0.1,0l0,0c0-0.4-0.2-0.7-0.4-1c-0.1-0.1-0.3-0.3-0.4-0.4l0,0 l0.1-0.1l0.1-0.1c0.1-0.1,0.3-0.1,0.4-0.2c0.1,0,0.1-0.1,0.2-0.1c0,0,0,0,0,0C26.1,12,26.2,11.9,26.1,11.8 C26.2,11.9,26.2,11.8,26.1,11.8C26.1,11.8,26.1,11.8,26.1,11.8" class="st125"/><path d="M24.1,12.6c-0.6-0.2-1.2-0.4-1.9-0.4l0,0c0.1,0.3,0.2,0.6,0.3,0.9l0,0.1c0,0,0,0,0.1,0.1 c0,0,0.1,0,0.1,0c0.1,0,0.2,0,0.2,0c0.1-0.1,0.3-0.1,0.4-0.2c0.2-0.1,0.4-0.2,0.6-0.3L24.1,12.6" class="st2749"/><path d="M25.3,14.4L25.3,14.4c-0.5,0-0.9,0-1.4,0l-0.2,0c-0.1,0-0.2,0-0.2,0c-0.1,0-0.1,0.1,0,0.2l0,0.1 c0.2,0.2,0.5,0.5,0.7,0.7c0,0,0,0,0,0c0,0,0,0,0,0c0,0,0,0,0,0l0,0c0,0,0.1,0,0.1-0.1c0.3-0.2,0.5-0.3,0.6-0.5 C25.2,14.7,25.2,14.6,25.3,14.4" class="st2749"/><path d="M22.6,14.9l-0.2-0.1c-0.1,0-0.1,0-0.2,0c0,0,0,0-0.1,0.1c-0.1,0.2-0.3,0.4-0.4,0.6 c-0.1,0.1-0.1,0.2-0.2,0.3l0,0l0.1,0c0.4,0,0.7,0,1.1,0c0.3,0,0.5-0.1,0.8-0.1l0,0C23.2,15.4,22.9,15.1,22.6,14.9" class="st2749"/><path d="M21.5,12.2c-0.6,0.1-1.1,0.3-1.5,0.5c-0.1,0-0.1,0.1-0.2,0.1l0.1,0c0.3,0.1,0.7,0.2,1,0.3 c0.1,0,0.2,0.1,0.3,0.1l0.2,0c0,0,0.1,0,0.1,0c0,0,0.1-0.1,0.1-0.1C21.6,12.9,21.5,12.6,21.5,12.2L21.5,12.2" class="st2749"/><path d="M24.8,12.9l-0.1,0l0,0c-0.3,0.2-0.5,0.3-0.8,0.5c-0.1,0.1-0.2,0.1-0.2,0.1c-0.1,0-0.1,0.1-0.1,0.1 c0,0,0,0.1,0.1,0.1c0,0,0,0,0.1,0c0,0,0,0,0.1,0c0.4,0,0.7,0.1,1.1,0.1c0.1,0,0.3,0,0.4,0l0,0l0,0c0-0.2-0.1-0.4-0.3-0.7 C25,13.1,24.9,13,24.8,12.9" class="st2749"/><path d="M20.7,13.8C20.7,13.8,20.7,13.8,20.7,13.8c-0.4-0.2-0.9-0.4-1.3-0.5l-0.1,0l0,0 c-0.2,0.3-0.3,0.6-0.2,1l0.1,0.1l0.1,0c0.4-0.1,0.9-0.2,1.3-0.3l0.1,0c0,0,0,0,0,0C20.8,14,20.8,13.9,20.7,13.8 C20.8,13.9,20.8,13.8,20.7,13.8" class="st2749"/><path d="M21.2,14.6c-0.1,0-0.2-0.1-0.3,0c-0.5,0.1-1,0.2-1.4,0.2l0,0.1l0,0c0.1,0.2,0.3,0.3,0.5,0.4 c0,0,0,0,0.1,0c0.1,0.1,0.3,0.1,0.4,0.2c0,0,0.1,0,0.1,0l0.2,0.1l0,0c0.1-0.1,0.1-0.3,0.2-0.4c0.1-0.1,0.1-0.3,0.2-0.4 C21.3,14.7,21.3,14.6,21.2,14.6" class="st2749"/><path d="M22.7,13.8C22.7,13.8,22.7,13.8,22.7,13.8L22.7,13.8l-0.2-0.1l-0.1,0c-0.1,0-0.3,0-0.4,0l-0.1,0 c-0.1,0.1-0.1,0.1-0.2,0.2l0,0c0,0.1,0.1,0.1,0.1,0.2l0.1,0c0.1,0,0.2,0.1,0.4,0.1l0.1,0c0.1,0,0.2-0.1,0.3-0.1l0.1,0 l0-0.1c0,0,0,0,0,0C22.8,13.9,22.7,13.9,22.7,13.8" class="st2749"/></g></g></g></g></g></g><g><polygon points="23.9 22.6 23.9 23.4 7.4 13.9 7.4 13.1" class="st2752"/></g><g><polygon points="37.4 14.7 37.4 15.5 23.9 23.4 23.9 22.6" class="st2751"/></g></g></g></g><polyline points="23.7 35.6 26.3 38.1 24 40.9" class="st2750"/><line x1="29.2" x2="30.1" y1="37.7" y2="37.5" class="st2750"/></svg>