<svg xmlns="http://www.w3.org/2000/svg" xmlns:xlink="http://www.w3.org/1999/xlink" id="Layer_1" x="0" y="0" version="1.1" viewBox="0 0 55 55" xml:space="preserve" style="enable-background:new 0 0 55 55"><style type="text/css">.st0{fill:#0063ff}.st125{fill:#fff}.st158{fill:#1be0e6}</style><path d="M0.4,5.4v44.9c0,1.3,1.1,2.4,2.4,2.4h49.4c1.3,0,2.4-1.1,2.4-2.4V5.4c0-1.3-1.1-2.4-2.4-2.4H2.8	C1.5,3,0.4,4.1,0.4,5.4z" class="st0"/><path d="M2.8,3h49.4c1.3,0,2.4,1.1,2.4,2.4v8.1H0.4V5.4C0.4,4.1,1.5,3,2.8,3z" class="st158"/><path d="M6.7,7.2L6.7,7.2c-0.6,0-1.1,0.5-1.1,1.1s0.5,1.1,1.1,1.1h0c0.6,0,1.1-0.5,1.1-1.1S7.3,7.2,6.7,7.2z" class="st0"/><path d="M12.2,7.2L12.2,7.2c-0.6,0-1.1,0.5-1.1,1.1s0.5,1.1,1.1,1.1h0c0.6,0,1.1-0.5,1.1-1.1S12.8,7.2,12.2,7.2z" class="st0"/><path d="M17.6,7.2L17.6,7.2c-0.6,0-1.1,0.5-1.1,1.1s0.5,1.1,1.1,1.1h0c0.6,0,1.1-0.5,1.1-1.1S18.2,7.2,17.6,7.2z" class="st0"/><path d="M48.2,7.2H27c-0.6,0-1.1,0.5-1.1,1.1c0,0.6,0.5,1.1,1.1,1.1h21.2c0.6,0,1.1-0.5,1.1-1.1	C49.3,7.7,48.8,7.2,48.2,7.2z" class="st0"/><path d="M18.9,30.5c0-2.2-1.8-4-4-4h-3.7c-0.6,0-1.1,0.5-1.1,1.1v11.4c0,0.6,0.5,1.1,1.1,1.1H15c2.2,0,4-1.8,4-4	c0-1.1-0.5-2.1-1.2-2.9C18.5,32.7,18.9,31.7,18.9,30.5z M16.7,36.3c0,1-0.8,1.8-1.8,1.8h-2.6v-3.5H15C15.9,34.5,16.7,35.3,16.7,36.3	z M12.4,32.3v-3.5H15c1,0,1.8,0.8,1.8,1.8s-0.8,1.8-1.8,1.8H12.4z" class="st125"/><path d="M22.1,26.6c-0.6,0-1.1,0.5-1.1,1.1v8.9c0,2,1.6,3.6,3.6,3.6c0.6,0,1.1-0.5,1.1-1.1S25.2,38,24.6,38	c-0.8,0-1.4-0.6-1.4-1.4v-8.9C23.2,27.1,22.7,26.6,22.1,26.6z" class="st125"/><path d="M35.1,36.2c0-2.2-1.8-4-4-4s-4,1.8-4,4c0,2.2,1.8,4,4,4C33.3,40.2,35.1,38.4,35.1,36.2z M29.3,36.2	c0-1,0.8-1.8,1.8-1.8c1,0,1.8,0.8,1.8,1.8c0,1-0.8,1.8-1.8,1.8S29.3,37.2,29.3,36.2z" class="st125"/><path d="M40.9,43.3c-1,0-1.8-0.8-1.8-1.8c0-0.6-0.5-1.1-1.1-1.1s-1.1,0.5-1.1,1.1c0,2.2,1.8,4,4,4c2.2,0,4-1.8,4-4	v-5.3c0-2.2-1.8-4-4-4c-2.2,0-4,1.8-4,4c0,2.2,1.8,4,4,4c0.6,0,1.2-0.2,1.8-0.4v1.7C42.7,42.5,41.9,43.3,40.9,43.3z M40.9,38	c-1,0-1.8-0.8-1.8-1.8c0-1,0.8-1.8,1.8-1.8c1,0,1.8,0.8,1.8,1.8C42.7,37.2,41.9,38,40.9,38z" class="st125"/></svg>