<svg xmlns="http://www.w3.org/2000/svg" xmlns:xlink="http://www.w3.org/1999/xlink" id="Layer_1" x="0" y="0" version="1.1" viewBox="0 0 55 55" xml:space="preserve" style="enable-background:new 0 0 55 55"><style type="text/css">.st0{fill:#0063ff}.st125{fill:#fff}.st158{fill:#1be0e6}.st2218,.st2219{fill:none;stroke:#fff;stroke-width:2;stroke-miterlimit:10}.st2219{stroke-linecap:round}</style><path d="M32.6,54.5H4.3c-2.1,0-3.9-1.7-3.9-3.9V4.4c0-2.1,1.7-3.9,3.9-3.9h28.3c2.1,0,3.9,1.7,3.9,3.9v46.3	C36.5,52.8,34.8,54.5,32.6,54.5z" class="st0"/><path d="M28.5,0.5v6.9c0,0.6,0.5,1.1,1.1,1.1h9.9" class="st2218"/><g><g><g><rect width="16.7" height="8.4" x="29.2" y="24.8" class="st125" transform="matrix(0.7071 -0.7071 0.7071 0.7071 -9.4874 35.0491)"/><path d="M40.5,21.5L30.1,31.9l4.5,4.5C37,34.1,41.5,29.5,45,26L40.5,21.5z" class="st0"/></g></g><g><g><path d="M41.4,19.3l3-3c0.7-0.7,1.8-1.2,3-1.2c1.1,0,2.2,0.4,3,1.2c1.6,1.6,1.6,4.3,0,5.9l-3,3L41.4,19.3z" class="st125"/><path d="M49.6,17c-0.6-0.6-1.4-0.9-2.2-0.9s-1.7,0.3-2.2,0.9l-2.3,2.3l4.5,4.5c1.3-1.3,2.1-2.1,2.3-2.3 C50.8,20.2,50.8,18.2,49.6,17z" class="st158"/></g></g><g><g><path d="M27.6,40.7c-0.6,0-1.1-0.3-1.5-0.7c-0.3-0.5-0.4-1.1-0.2-1.6l1.9-5.7l6,6l-5.7,1.9 C28,40.7,27.8,40.7,27.6,40.7C27.6,40.7,27.6,40.7,27.6,40.7z" class="st125"/><path d="M28.2,34.5l-1.4,4.1c-0.2,0.6,0.4,1.2,1,1l4.1-1.4L28.2,34.5z" class="st0"/></g></g></g><line x1="4.5" x2="25.5" y1="18.5" y2="18.5" class="st2219"/><line x1="4.5" x2="25.5" y1="24.5" y2="24.5" class="st2219"/><line x1="4.5" x2="21.5" y1="30.5" y2="30.5" class="st2219"/><line x1="4.5" x2="21.5" y1="36.5" y2="36.5" class="st2219"/><line x1="4.5" x2="25.5" y1="42.5" y2="42.5" class="st2219"/></svg>