<svg xmlns="http://www.w3.org/2000/svg" xmlns:xlink="http://www.w3.org/1999/xlink" id="Layer_1" x="0" y="0" version="1.1" viewBox="0 0 55 55" xml:space="preserve" style="enable-background:new 0 0 55 55"><style type="text/css">.st0{fill:#0063ff}.st158{fill:#1be0e6}.st2216{fill:#f0f0fa}</style><path d="M53,54.5H2c-0.8,0-1.5-0.7-1.5-1.5V2c0-0.8,0.7-1.5,1.5-1.5h51c0.8,0,1.5,0.7,1.5,1.5v51	C54.5,53.8,53.8,54.5,53,54.5z" class="st0"/><path d="M27,13.5c9.1,0,16.6,7.4,16.6,16.6c0,7.5-5,13.9-11.9,15.9c-0.3-0.4-0.5-0.9-0.5-1.4v-4.1	c0-1.9-0.7-2.4-1.3-3.2c8.6-1.3,8.9-9.2,5.9-12.8c0-0.1-0.1-0.2-0.1-0.2c0.5-1.4,0.4-4.5-0.7-4.4c-1.5,0.1-2.6,0.9-4,1.7	c-0.1,0.1-0.2,0.1-0.3,0.1C29.5,21.2,28.2,21,27,21c-1.3,0-2.5,0.2-3.8,0.5c-0.1,0-0.2,0-0.3-0.1c-1.3-0.8-2.5-1.6-4-1.7	c-1.1,0-1.1,3-0.7,4.4c0,0.1,0,0.2-0.1,0.2c-3,3.6-2.7,11.5,5.9,12.8c-0.5,0.8-1.3,1.3-1.3,3.2v4.1c0,0.5-0.2,1-0.5,1.4	c-6.9-2-11.9-8.4-11.9-15.9C10.4,20.9,17.8,13.5,27,13.5z" class="st2216"/><path d="M40.4,7c0,0.6-0.5,1-1,1c-0.6,0-1-0.5-1-1s0.5-1,1-1C40,6,40.4,6.4,40.4,7z" class="st158"/><path d="M14.6,8.1h20.7c0.6,0,1-0.5,1-1s-0.5-1-1-1H14.6c-0.6,0-1,0.5-1,1S14,8.1,14.6,8.1z" class="st158"/></svg>