<svg xmlns="http://www.w3.org/2000/svg" xmlns:xlink="http://www.w3.org/1999/xlink" id="Layer_1" x="0" y="0" version="1.1" viewBox="0 0 55 55" xml:space="preserve" style="enable-background:new 0 0 55 55"><style type="text/css">.st158{fill:#1be0e6}.st2215{fill:#0365ff}.st2217{fill:#1be0e6;stroke:#0063ff;stroke-width:.4;stroke-miterlimit:10}</style><g><g><path d="M19.4,22.1c0-3.8-1.9-5.6-4.7-5.6c-1.1,0-2,0.1-2.4,0.3V28c0.6,0.2,1.3,0.3,2.1,0.3 C17.5,28.3,19.4,26.1,19.4,22.1z" class="st2215"/><path d="M0.5,44.6l30.6,7.9V2.3L0.5,10.2V44.6z M9.6,14.1c1.3-0.3,2.9-0.6,5-0.6c2.6,0,4.4,0.9,5.6,2.4 c1.1,1.4,1.8,3.5,1.8,6c0,2.6-0.5,4.7-1.5,6.2c-1.4,2.1-3.6,3.2-6.1,3.2c-0.8,0-1.5,0-2.1-0.3v11.5H9.6V14.1z" class="st2215"/><path d="M32.9,8.2v40.2h21.6V8.2H32.9z M39.9,11.7H49v12.2h-1V12.7h-8V11.7z M38.4,13.2h1h8v11.2v1l-9.1,0V13.2z M43.4,44.5c-2.9,0-5.3-2.4-5.3-5.3c0-2.9,2.4-5.3,5.3-5.3v5.3h5.3C48.6,42.1,46.3,44.5,43.4,44.5z M44,38.5v-5.3 c2.9,0,5.3,2.4,5.3,5.3H44z" class="st2215"/></g></g><rect width="9.7" height="13" x="39.4" y="11.6" class="st158"/><rect width="9.7" height="13" x="38.3" y="12.8" class="st2217"/></svg>