<svg xmlns="http://www.w3.org/2000/svg" xmlns:xlink="http://www.w3.org/1999/xlink" id="Layer_1" x="0" y="0" version="1.1" viewBox="0 0 1023.6 235.8" xml:space="preserve" style="enable-background:new 0 0 1023.6 235.8"><style type="text/css">.st0{clip-path:url(#SVGID_2_)}.st1,.st2{clip-path:url(#SVGID_4_);fill:url(#SVGID_5_)}.st2{opacity:3.000000e-02;fill:#fff}.st3{opacity:.17;fill:#f15a29}.st3,.st4{clip-path:url(#SVGID_4_)}.st4,.st5{opacity:.21;fill:#f69437}.st6{opacity:3.000000e-02;fill:#fff}.st7{opacity:.17;fill:#f15a29}</style><g><defs><rect id="SVGID_1_" width="1024" height="275.3" x=".1" y="-3.5"/></defs><clipPath id="SVGID_2_"><use xlink:href="#SVGID_1_" style="overflow:visible"/></clipPath><g class="st0"><defs><rect id="SVGID_3_" width="1382.9" height="237" x="-156.3" y=".6"/></defs><clipPath id="SVGID_4_"><use xlink:href="#SVGID_3_" style="overflow:visible"/></clipPath><linearGradient id="SVGID_5_" x1="760.153" x2="311.375" y1="-269.612" y2="507.694" gradientUnits="userSpaceOnUse"><stop offset=".154" style="stop-color:#e55626"/><stop offset=".993" style="stop-color:#f69437"/></linearGradient><rect width="1384.2" height="237.2" x="-156.3" y=".4" class="st1"/><polygon points="939.7 131.8 862.9 158.1 864.2 239.2 941.8 263.1 988.4 196.7" class="st2"/><polygon points="458.2 19.1 407.8 36.4 408.7 89.6 459.5 105.2 490.1 61.7" class="st2"/><polygon points="13.1 42.4 -50.7 64.3 -49.6 131.7 14.9 151.5 53.6 96.3" class="st3"/><polygon points="196.1 122.4 120.4 148.3 121.7 228.3 198.2 251.9 244.2 186.4" class="st3"/><polygon points="290.6 78.2 286.3 115.6 320.4 131.3 345.9 103.6 327.5 70.8" class="st2"/><polygon points="77.3 52.8 72.9 90.1 107.1 105.8 132.6 78.2 114.2 45.4" class="st2"/><polygon points="837.5 47.3 830.7 105.1 883.7 129.5 923.2 86.6 894.6 35.8" class="st2"/><polygon points="82.3 184.1 78.6 215.7 107.4 228.9 129 205.6 113.4 177.9" class="st2"/><polygon points="585.9 62.3 582.2 93.9 611 107.1 632.6 83.8 617 56.1" class="st4"/><polygon points="654.5 132.3 647.6 191.1 701.4 215.8 741.5 172.3 712.5 120.7" class="st4"/><polygon points="989.5 173.8 985.8 205.4 1014.6 218.6 1036.2 195.3 1020.6 167.6" class="st4"/><polygon points="679.7 46.3 673.1 102.6 724.6 126.3 763.1 84.6 735.3 35.1" class="st2"/><polygon points="756 169.9 749.4 226.3 801 249.9 839.4 208.2 811.6 158.8" class="st2"/><polygon points="999.6 37.8 993 94.1 1044.6 117.8 1083 76.1 1055.3 26.7" class="st2"/><polygon points="907.7 69.7 899.3 141.3 964.8 171.4 1013.7 118.4 978.3 55.5" class="st4"/><polygon points="341.6 73.3 333.3 144.9 398.8 175 447.6 122 412.3 59.2" class="st3"/><polygon points="-81.4 147.3 -89.7 218.9 -24.2 249 24.6 196 -10.7 133.1" class="st3"/><polygon points="757.4 52.7 749 124.3 814.5 154.4 863.4 101.4 828.1 38.6" class="st4"/><polygon points="964.8 14.6 956.7 84 1020.1 113.1 1067.4 61.8 1033.3 .9" class="st4"/><polygon points="253.2 180 247.4 229.4 292.6 250.1 326.2 213.6 301.9 170.2" class="st3"/><polygon points="227.7 46.7 221.9 96 267.1 116.8 300.8 80.2 276.4 36.9" class="st3"/><polygon points="149.5 70.3 143.8 119.7 188.9 140.4 222.6 103.9 198.3 60.5" class="st2"/><polygon points="339.8 174.5 334.1 223.9 379.2 244.7 412.9 208.1 388.6 164.8" class="st2"/><polygon points="4.8 104.1 -4.3 181.6 66.7 214.2 119.6 156.8 81.4 88.7" class="st2"/></g></g><polygon points="510.5 147.3 503.6 206.1 557.4 230.8 597.5 187.3 568.5 135.7" class="st5"/><polygon points="583.6 135.2 579.3 172.6 613.4 188.3 638.9 160.6 620.5 127.8" class="st6"/><polygon points="422.6 157.3 416.6 208.7 463.6 230.2 498.6 192.2 473.3 147.2" class="st7"/><polygon points="488.5 72.3 481.7 130.1 534.7 154.5 574.2 111.6 545.6 60.8" class="st6"/></svg>